<svg width="294" height="71" viewBox="0 0 294 71" fill="none" xmlns="http://www.w3.org/2000/svg">
<path d="M29.3357 2.54545V68H15.4969V15.6811H15.1134L0.124023 25.0774V12.8047L16.3279 2.54545H29.3357ZM73.3689 2.54545V68H59.5301V15.6811H59.1466L44.1572 25.0774V12.8047L60.3611 2.54545H73.3689ZM93.4958 68.831C91.3865 68.831 89.5754 68.0852 88.0626 66.5938C86.5711 65.081 85.8254 63.2699 85.8254 61.1605C85.8254 59.0724 86.5711 57.2827 88.0626 55.7912C89.5754 54.2997 91.3865 53.554 93.4958 53.554C95.5413 53.554 97.3311 54.2997 98.8651 55.7912C100.399 57.2827 101.166 59.0724 101.166 61.1605C101.166 62.5668 100.804 63.8558 100.08 65.0277C99.3765 66.1783 98.4497 67.1051 97.2991 67.8082C96.1485 68.4901 94.8808 68.831 93.4958 68.831ZM134.669 1.65057C138.035 1.65057 141.274 2.2152 144.385 3.34446C147.517 4.47372 150.308 6.27415 152.758 8.74574C155.23 11.2173 157.179 14.4986 158.607 18.5895C160.056 22.6591 160.791 27.6555 160.812 33.5788C160.812 39.1399 160.184 44.1044 158.926 48.4723C157.691 52.8189 155.911 56.5156 153.589 59.5625C151.267 62.6094 148.465 64.9318 145.184 66.5298C141.902 68.1065 138.237 68.8949 134.189 68.8949C129.821 68.8949 125.965 68.0533 122.62 66.37C119.274 64.6655 116.579 62.3537 114.534 59.4347C112.509 56.4943 111.284 53.1918 110.858 49.527H124.505C125.038 51.9134 126.157 53.767 127.861 55.0881C129.566 56.3878 131.675 57.0376 134.189 57.0376C138.451 57.0376 141.689 55.1839 143.905 51.4766C146.121 47.7479 147.24 42.6449 147.261 36.1676H146.813C145.833 38.0852 144.512 39.7365 142.85 41.1214C141.188 42.4851 139.282 43.5398 137.13 44.2855C134.999 45.0312 132.73 45.4041 130.322 45.4041C126.465 45.4041 123.024 44.4986 119.999 42.6875C116.973 40.8764 114.587 38.3835 112.84 35.2088C111.093 32.0341 110.219 28.4119 110.219 24.3423C110.198 19.9531 111.21 16.0433 113.255 12.6129C115.301 9.18253 118.156 6.49787 121.821 4.55895C125.507 2.59872 129.789 1.62926 134.669 1.65057ZM134.764 12.517C132.612 12.517 130.695 13.0284 129.012 14.0511C127.35 15.0739 126.029 16.4482 125.049 18.174C124.09 19.8999 123.621 21.8281 123.642 23.9588C123.642 26.1108 124.111 28.0497 125.049 29.7756C126.007 31.4801 127.307 32.8437 128.948 33.8665C130.61 34.8679 132.506 35.3686 134.637 35.3686C136.235 35.3686 137.715 35.0703 139.079 34.4737C140.443 33.8771 141.625 33.0568 142.627 32.0128C143.649 30.9474 144.448 29.7223 145.024 28.3374C145.599 26.9524 145.887 25.4822 145.887 23.9268C145.865 21.8601 145.375 19.9638 144.416 18.2379C143.458 16.5121 142.137 15.1271 140.453 14.0831C138.77 13.0391 136.874 12.517 134.764 12.517ZM194.306 68.8949C189.789 68.8949 185.762 68.0639 182.225 66.402C178.71 64.7401 175.919 62.4496 173.852 59.5305C171.785 56.6115 170.709 53.2663 170.624 49.495H184.047C184.196 52.0305 185.262 54.0866 187.243 55.6634C189.225 57.2401 191.579 58.0284 194.306 58.0284C196.48 58.0284 198.397 57.549 200.059 56.5902C201.742 55.6101 203.053 54.2571 203.99 52.5312C204.949 50.7841 205.429 48.7812 205.429 46.5227C205.429 44.2216 204.938 42.1974 203.958 40.4503C203 38.7031 201.668 37.3395 199.963 36.3594C198.259 35.3793 196.309 34.8785 194.115 34.8572C192.197 34.8572 190.333 35.2514 188.522 36.0398C186.732 36.8281 185.336 37.9041 184.335 39.2678L172.03 37.0625L175.13 2.54545H215.144V13.8594H186.54L184.846 30.255H185.23C186.38 28.6357 188.117 27.2933 190.439 26.228C192.762 25.1626 195.361 24.63 198.237 24.63C202.179 24.63 205.695 25.5568 208.784 27.4105C211.874 29.2642 214.313 31.8104 216.103 35.049C217.893 38.2663 218.777 41.9737 218.756 46.1712C218.777 50.5817 217.755 54.5021 215.688 57.9325C213.642 61.3416 210.777 64.0263 207.09 65.9865C203.426 67.9254 199.164 68.8949 194.306 68.8949ZM264.235 55.7273V52.2756C264.235 49.6548 264.789 47.2472 265.897 45.0526C267.027 42.8366 268.657 41.0682 270.787 39.7472C272.939 38.4048 275.56 37.7337 278.649 37.7337C281.782 37.7337 284.413 38.3942 286.544 39.7152C288.696 41.0362 290.315 42.8047 291.402 45.0206C292.51 47.2152 293.063 49.6335 293.063 52.2756V55.7273C293.063 58.348 292.51 60.7663 291.402 62.9822C290.294 65.1768 288.664 66.9347 286.512 68.2557C284.36 69.598 281.739 70.2692 278.649 70.2692C275.517 70.2692 272.886 69.598 270.755 68.2557C268.625 66.9347 267.005 65.1768 265.897 62.9822C264.789 60.7663 264.235 58.348 264.235 55.7273ZM273.536 52.2756V55.7273C273.536 57.2401 273.898 58.6676 274.622 60.0099C275.368 61.3523 276.71 62.0234 278.649 62.0234C280.588 62.0234 281.909 61.3629 282.612 60.0419C283.337 58.7209 283.699 57.2827 283.699 55.7273V52.2756C283.699 50.7202 283.358 49.2713 282.676 47.929C281.995 46.5866 280.652 45.9155 278.649 45.9155C276.732 45.9155 275.4 46.5866 274.654 47.929C273.909 49.2713 273.536 50.7202 273.536 52.2756ZM230.645 18.2699V14.8182C230.645 12.1761 231.21 9.75781 232.339 7.56321C233.468 5.3473 235.098 3.57883 237.229 2.25781C239.381 0.936789 241.98 0.276277 245.027 0.276277C248.181 0.276277 250.823 0.936789 252.953 2.25781C255.084 3.57883 256.703 5.3473 257.811 7.56321C258.919 9.75781 259.473 12.1761 259.473 14.8182V18.2699C259.473 20.9119 258.909 23.3303 257.779 25.5249C256.671 27.7195 255.041 29.4773 252.889 30.7983C250.759 32.098 248.138 32.7479 245.027 32.7479C241.916 32.7479 239.285 32.0874 237.133 30.7663C235.002 29.424 233.383 27.6662 232.275 25.4929C231.188 23.2983 230.645 20.8906 230.645 18.2699ZM240.01 14.8182V18.2699C240.01 19.8253 240.372 21.2635 241.096 22.5845C241.842 23.9055 243.152 24.5661 245.027 24.5661C246.987 24.5661 248.319 23.9055 249.022 22.5845C249.747 21.2635 250.109 19.8253 250.109 18.2699V14.8182C250.109 13.2628 249.768 11.8139 249.086 10.4716C248.404 9.12926 247.051 8.45809 245.027 8.45809C243.131 8.45809 241.821 9.13991 241.096 10.5036C240.372 11.8672 240.01 13.3054 240.01 14.8182ZM234.864 68L279.864 2.54545H288.237L243.237 68H234.864Z" fill="#F3F1F8"/>
<path d="M29.3357 2.54545H31.3357V0.545452H29.3357V2.54545ZM29.3357 68V70H31.3357V68H29.3357ZM15.4969 68H13.4969V70H15.4969V68ZM15.4969 15.6811H17.4969V13.6811H15.4969V15.6811ZM15.1134 15.6811V13.6811H14.5383L14.0511 13.9865L15.1134 15.6811ZM0.124023 25.0774H-1.87598V28.6916L1.18629 26.772L0.124023 25.0774ZM0.124023 12.8047L-0.945843 11.1149L-1.87598 11.7038V12.8047H0.124023ZM16.3279 2.54545V0.545452H15.748L15.258 0.855663L16.3279 2.54545ZM27.3357 2.54545V68H31.3357V2.54545H27.3357ZM29.3357 66H15.4969V70H29.3357V66ZM17.4969 68V15.6811H13.4969V68H17.4969ZM15.4969 13.6811H15.1134V17.6811H15.4969V13.6811ZM14.0511 13.9865L-0.938247 23.3828L1.18629 26.772L16.1756 17.3757L14.0511 13.9865ZM2.12402 25.0774V12.8047H-1.87598V25.0774H2.12402ZM1.19389 14.4945L17.3977 4.23524L15.258 0.855663L-0.945843 11.1149L1.19389 14.4945ZM16.3279 4.54545H29.3357V0.545452H16.3279V4.54545ZM73.3689 2.54545H75.3689V0.545452H73.3689V2.54545ZM73.3689 68V70H75.3689V68H73.3689ZM59.5301 68H57.5301V70H59.5301V68ZM59.5301 15.6811H61.5301V13.6811H59.5301V15.6811ZM59.1466 15.6811V13.6811H58.5715L58.0843 13.9865L59.1466 15.6811ZM44.1572 25.0774H42.1572V28.6916L45.2195 26.772L44.1572 25.0774ZM44.1572 12.8047L43.0874 11.1149L42.1572 11.7038V12.8047H44.1572ZM60.3611 2.54545V0.545452H59.7812L59.2912 0.855663L60.3611 2.54545ZM71.3689 2.54545V68H75.3689V2.54545H71.3689ZM73.3689 66H59.5301V70H73.3689V66ZM61.5301 68V15.6811H57.5301V68H61.5301ZM59.5301 13.6811H59.1466V17.6811H59.5301V13.6811ZM58.0843 13.9865L43.095 23.3828L45.2195 26.772L60.2088 17.3757L58.0843 13.9865ZM46.1572 25.0774V12.8047H42.1572V25.0774H46.1572ZM45.2271 14.4945L61.4309 4.23524L59.2912 0.855663L43.0874 11.1149L45.2271 14.4945ZM60.3611 4.54545H73.3689V0.545452H60.3611V4.54545ZM88.0626 66.5938L86.6384 67.9979L86.6483 68.008L86.6584 68.018L88.0626 66.5938ZM88.0626 55.7912L86.6584 54.367L86.6534 54.372L86.6484 54.377L88.0626 55.7912ZM98.8652 55.7912L97.471 57.2252L98.8652 55.7912ZM100.08 65.0277L98.3784 63.976L98.3731 63.9848L100.08 65.0277ZM97.2991 67.8082L98.3187 69.5288L98.3304 69.5219L98.342 69.5148L97.2991 67.8082ZM93.4958 66.831C91.9162 66.831 90.6083 66.295 89.4667 65.1695L86.6584 68.018C88.5425 69.8754 90.8568 70.831 93.4958 70.831V66.831ZM89.4868 65.1896C88.3613 64.048 87.8254 62.7402 87.8254 61.1605H83.8254C83.8254 63.7996 84.7809 66.1139 86.6384 67.9979L89.4868 65.1896ZM87.8254 61.1605C87.8254 59.6089 88.3561 58.3261 89.4768 57.2054L86.6484 54.377C84.7861 56.2393 83.8254 58.536 83.8254 61.1605H87.8254ZM89.4667 57.2154C90.6083 56.0899 91.9162 55.554 93.4958 55.554V51.554C90.8568 51.554 88.5425 52.5095 86.6584 54.367L89.4667 57.2154ZM93.4958 55.554C94.9946 55.554 96.2912 56.0781 97.471 57.2252L100.259 54.3572C98.3709 52.5213 96.088 51.554 93.4958 51.554V55.554ZM97.471 57.2252C98.6285 58.3506 99.1663 59.6275 99.1663 61.1605H103.166C103.166 58.5174 102.17 56.2148 100.259 54.3572L97.471 57.2252ZM99.1663 61.1605C99.1663 62.2034 98.9033 63.127 98.3784 63.9761L101.781 66.0793C102.705 64.5846 103.166 62.9301 103.166 61.1605H99.1663ZM98.3731 63.9848C97.8354 64.8646 97.136 65.564 96.2562 66.1017L98.342 69.5148C99.7633 68.6462 100.918 67.4919 101.786 66.0706L98.3731 63.9848ZM96.2795 66.0877C95.4489 66.5799 94.5353 66.831 93.4958 66.831V70.831C95.2262 70.831 96.8482 70.4002 98.3187 69.5288L96.2795 66.0877ZM134.669 1.65057L134.66 3.65057H134.669V1.65057ZM144.385 3.34446L143.702 5.22442L143.706 5.2259L144.385 3.34446ZM152.758 8.74574L151.338 10.1538L151.344 10.16L152.758 8.74574ZM158.607 18.5895L156.718 19.2485L156.723 19.2603L158.607 18.5895ZM160.812 33.5788H162.812L162.812 33.5716L160.812 33.5788ZM158.926 48.4723L157.004 47.9191L157.003 47.9254L158.926 48.4723ZM153.589 59.5625L155.18 60.7749V60.7749L153.589 59.5625ZM145.184 66.5298L146.05 68.3325L146.059 68.3279L145.184 66.5298ZM122.62 66.37L121.712 68.152L121.721 68.1566L122.62 66.37ZM114.534 59.4347L112.886 60.5687L112.891 60.5756L112.896 60.5824L114.534 59.4347ZM110.858 49.527V47.527H108.612L108.872 49.758L110.858 49.527ZM124.505 49.527L126.457 49.0913L126.108 47.527H124.505V49.527ZM127.861 55.0881L126.636 56.6689L126.642 56.6737L126.648 56.6785L127.861 55.0881ZM143.905 51.4766L145.622 52.5027L145.624 52.4983L143.905 51.4766ZM147.261 36.1676L149.261 36.1742L149.268 34.1676H147.261V36.1676ZM146.813 36.1676V34.1676H145.59L145.033 35.2574L146.813 36.1676ZM142.85 41.1214L144.119 42.6676L144.125 42.6628L144.131 42.6579L142.85 41.1214ZM137.13 44.2855L136.475 42.3958L136.469 42.3978L137.13 44.2855ZM119.999 42.6875L118.972 44.4036L119.999 42.6875ZM112.84 35.2088L111.088 36.1731L112.84 35.2088ZM110.219 24.3423H112.219L112.219 24.3326L110.219 24.3423ZM113.255 12.6129L114.973 13.6372L113.255 12.6129ZM121.821 4.55895L122.756 6.32678L122.76 6.32478L121.821 4.55895ZM129.012 14.0511L127.973 12.3419L127.963 12.3478L129.012 14.0511ZM125.049 18.174L123.309 17.1864L123.305 17.1945L123.3 17.2027L125.049 18.174ZM123.642 23.9588H125.642V23.9488L125.642 23.9388L123.642 23.9588ZM125.049 29.7756L123.291 30.7302L123.298 30.7432L123.305 30.7561L125.049 29.7756ZM128.948 33.8665L127.89 35.5637L127.903 35.5717L127.915 35.5795L128.948 33.8665ZM139.079 34.4737L138.277 32.6414L139.079 34.4737ZM142.627 32.0128L141.184 30.6277L141.183 30.6283L142.627 32.0128ZM145.024 28.3374L146.871 29.1046L145.024 28.3374ZM145.887 23.9268H147.887V23.9165L147.887 23.9062L145.887 23.9268ZM144.416 18.2379L146.165 17.2666L144.416 18.2379ZM140.453 14.0831L141.508 12.3835V12.3835L140.453 14.0831ZM134.669 3.65057C137.806 3.65057 140.814 4.17596 143.702 5.22442L145.067 1.46449C141.734 0.254435 138.264 -0.349434 134.669 -0.349434V3.65057ZM143.706 5.2259C146.546 6.24985 149.087 7.88334 151.338 10.1538L154.178 7.33766C151.529 4.66495 148.487 2.69759 145.063 1.46301L143.706 5.2259ZM151.344 10.16C153.558 12.3739 155.367 15.3752 156.718 19.2484L160.495 17.9305C158.992 13.622 156.902 10.0608 154.172 7.33152L151.344 10.16ZM156.723 19.2603C158.073 23.054 158.791 27.8109 158.812 33.586L162.812 33.5716C162.79 27.5002 162.038 22.2642 160.491 17.9187L156.723 19.2603ZM158.812 33.5788C158.812 38.9929 158.2 43.7659 157.004 47.9191L160.848 49.0255C162.167 44.4429 162.812 39.2869 162.812 33.5788H158.812ZM157.003 47.9254C155.823 52.0736 154.145 55.5345 151.998 58.3501L155.18 60.7749C157.678 57.4967 159.558 53.5642 160.85 49.0192L157.003 47.9254ZM151.998 58.3501C149.856 61.1613 147.294 63.2773 144.308 64.7317L146.059 68.3279C149.635 66.5864 152.678 64.0575 155.18 60.7749L151.998 58.3501ZM144.317 64.7271C141.335 66.16 137.972 66.8949 134.189 66.8949V70.8949C138.503 70.8949 142.469 70.053 146.05 68.3325L144.317 64.7271ZM134.189 66.8949C130.082 66.8949 126.542 66.1048 123.519 64.5835L121.721 68.1566C125.388 70.0018 129.561 70.8949 134.189 70.8949V66.8949ZM123.528 64.588C120.458 63.0239 118.019 60.9237 116.172 58.2869L112.896 60.5824C115.139 63.7837 118.091 66.3071 121.712 68.152L123.528 64.588ZM116.181 58.3006C114.348 55.6383 113.235 52.6479 112.845 49.296L108.872 49.758C109.334 53.7357 110.671 57.3503 112.886 60.5687L116.181 58.3006ZM110.858 51.527H124.505V47.527H110.858V51.527ZM122.553 49.9627C123.173 52.7393 124.514 55.0245 126.636 56.6689L129.086 53.5072C127.799 52.5096 126.903 51.0874 126.457 49.0913L122.553 49.9627ZM126.648 56.6785C128.759 58.2879 131.315 59.0376 134.189 59.0376V55.0376C132.035 55.0376 130.372 54.4877 129.074 53.4977L126.648 56.6785ZM134.189 59.0376C139.166 59.0376 143.051 56.804 145.622 52.5027L142.188 50.4505C140.327 53.5639 137.735 55.0376 134.189 55.0376V59.0376ZM145.624 52.4983C148.092 48.3469 149.239 42.8451 149.261 36.1742L145.261 36.161C145.24 42.4447 144.15 47.1488 142.186 50.4548L145.624 52.4983ZM147.261 34.1676H146.813V38.1676H147.261V34.1676ZM145.033 35.2574C144.176 36.9335 143.026 38.3721 141.57 39.585L144.131 42.6579C145.999 41.1009 147.491 39.2369 148.594 37.0778L145.033 35.2574ZM141.582 39.5753C140.113 40.7803 138.417 41.7228 136.475 42.3958L137.784 46.1753C140.146 45.3568 142.264 44.1899 144.119 42.6676L141.582 39.5753ZM136.469 42.3978C134.564 43.0644 132.52 43.4041 130.322 43.4041V47.4041C132.94 47.4041 135.433 46.9981 137.79 46.1732L136.469 42.3978ZM130.322 43.4041C126.792 43.4041 123.713 42.5795 121.026 40.9714L118.972 44.4036C122.336 46.4176 126.139 47.4041 130.322 47.4041V43.4041ZM121.026 40.9714C118.313 39.3475 116.173 37.1179 114.592 34.2445L111.088 36.1731C113.001 39.6492 115.633 42.4053 118.972 44.4036L121.026 40.9714ZM114.592 34.2445C113.027 31.4001 112.219 28.1169 112.219 24.3423H108.219C108.219 28.7069 109.159 32.6681 111.088 36.1731L114.592 34.2445ZM112.219 24.3326C112.199 20.2702 113.132 16.7246 114.973 13.6372L111.537 11.5886C109.287 15.3621 108.196 19.6361 108.219 24.352L112.219 24.3326ZM114.973 13.6372C116.823 10.534 119.402 8.1011 122.756 6.32677L120.885 2.79112C116.909 4.89464 113.778 7.83102 111.537 11.5886L114.973 13.6372ZM122.76 6.32478C126.108 4.54399 130.055 3.63044 134.66 3.65055L134.677 -0.349415C129.524 -0.371922 124.905 0.653448 120.882 2.79312L122.76 6.32478ZM134.764 10.517C132.281 10.517 129.998 11.1116 127.973 12.3419L130.05 15.7604C131.392 14.9452 132.944 14.517 134.764 14.517V10.517ZM127.963 12.3478C126.01 13.5502 124.453 15.1728 123.309 17.1864L126.788 19.1617C127.604 17.7235 128.69 16.5975 130.06 15.7545L127.963 12.3478ZM123.3 17.2027C122.16 19.2555 121.618 21.5298 121.642 23.9788L125.642 23.9388C125.624 22.1264 126.02 20.5443 126.797 19.1453L123.3 17.2027ZM121.642 23.9588C121.642 26.4116 122.18 28.6839 123.291 30.7302L126.806 28.8209C126.043 27.4155 125.642 25.81 125.642 23.9588H121.642ZM123.305 30.7561C124.427 32.7497 125.961 34.3612 127.89 35.5637L130.006 32.1692C128.653 31.3263 127.588 30.2105 126.792 28.795L123.305 30.7561ZM127.915 35.5795C129.919 36.7868 132.179 37.3686 134.637 37.3686V33.3686C132.833 33.3686 131.3 32.949 129.98 32.1534L127.915 35.5795ZM134.637 37.3686C136.49 37.3686 138.246 37.0212 139.881 36.306L138.277 32.6414C137.185 33.1194 135.979 33.3686 134.637 33.3686V37.3686ZM139.881 36.306C141.479 35.607 142.881 34.6369 144.07 33.3972L141.183 30.6283C140.37 31.4767 139.407 32.1473 138.277 32.6414L139.881 36.306ZM144.069 33.3978C145.267 32.1506 146.202 30.7151 146.871 29.1046L143.177 27.5701C142.695 28.7295 142.032 29.7443 141.184 30.6277L144.069 33.3978ZM146.871 29.1046C147.551 27.4674 147.887 25.7356 147.887 23.9268H143.887C143.887 25.2289 143.647 26.4374 143.177 27.5701L146.871 29.1046ZM147.887 23.9062C147.862 21.5227 147.293 19.2973 146.165 17.2666L142.668 19.2092C143.458 20.6302 143.869 22.1974 143.887 23.9475L147.887 23.9062ZM146.165 17.2666C145.04 15.2418 143.479 13.6066 141.508 12.3835L139.399 15.7827C140.794 16.6477 141.875 17.7823 142.668 19.2092L146.165 17.2666ZM141.508 12.3835C139.487 11.1302 137.221 10.517 134.764 10.517V14.517C136.527 14.517 138.053 14.9479 139.399 15.7827L141.508 12.3835ZM182.225 66.402L181.371 68.2101L181.375 68.2121L182.225 66.402ZM173.852 59.5305L175.484 58.3748L173.852 59.5305ZM170.624 49.495V47.495H168.578L168.624 49.5402L170.624 49.495ZM184.047 49.495L186.044 49.3776L185.933 47.495H184.047V49.495ZM187.243 55.6634L188.488 54.0983L187.243 55.6634ZM200.059 56.5902L201.059 58.3226L201.066 58.3186L200.059 56.5902ZM203.99 52.5312L202.237 51.569L202.233 51.5766L203.99 52.5312ZM203.958 40.4503L202.205 41.4125L202.21 41.4207L202.214 41.4288L203.958 40.4503ZM199.963 36.3594L198.966 38.0932V38.0932L199.963 36.3594ZM194.115 34.8572L194.134 32.8573L194.124 32.8572H194.115V34.8572ZM188.522 36.0398L187.723 34.206L187.715 34.2095L188.522 36.0398ZM184.335 39.2678L183.982 41.2364L185.209 41.4563L185.947 40.4516L184.335 39.2678ZM172.03 37.0625L170.038 36.8836L169.874 38.708L171.677 39.0311L172.03 37.0625ZM175.13 2.54545V0.545452H173.302L173.138 2.36654L175.13 2.54545ZM215.144 2.54545H217.144V0.545452H215.144V2.54545ZM215.144 13.8594V15.8594H217.144V13.8594H215.144ZM186.54 13.8594V11.8594H184.736L184.551 13.6538L186.54 13.8594ZM184.846 30.255L182.857 30.0494L182.629 32.255H184.846V30.255ZM185.23 30.255V32.255H186.262L186.86 31.4134L185.23 30.255ZM190.439 26.228L191.273 28.0458L190.439 26.228ZM208.784 27.4105L209.813 25.6955L208.784 27.4105ZM216.103 35.049L214.353 36.0164L214.355 36.0213L216.103 35.049ZM218.756 46.1712L216.756 46.161L216.756 46.1709L216.756 46.1808L218.756 46.1712ZM215.688 57.9325L213.975 56.9004L213.973 56.9035L215.688 57.9325ZM207.09 65.9865L208.026 67.7543L208.03 67.7523L207.09 65.9865ZM194.306 66.8949C190.038 66.8949 186.308 66.1107 183.076 64.5919L181.375 68.2121C185.216 70.0172 189.541 70.8949 194.306 70.8949V66.8949ZM183.08 64.5938C179.848 63.0657 177.335 60.989 175.484 58.3748L172.22 60.6862C174.502 63.9102 177.572 66.4144 181.371 68.2101L183.08 64.5938ZM175.484 58.3748C173.661 55.7994 172.7 52.8456 172.623 49.4498L168.624 49.5402C168.718 53.687 169.91 57.4236 172.22 60.6862L175.484 58.3748ZM170.624 51.495H184.047V47.495H170.624V51.495ZM182.051 49.6125C182.233 52.7134 183.57 55.2966 185.998 57.2284L188.488 54.0983C186.953 52.8767 186.16 51.3477 186.044 49.3776L182.051 49.6125ZM185.998 57.2284C188.361 59.1091 191.164 60.0284 194.306 60.0284V56.0284C191.994 56.0284 190.088 55.371 188.488 54.0983L185.998 57.2284ZM194.306 60.0284C196.783 60.0284 199.054 59.479 201.059 58.3226L199.06 54.8578C197.74 55.619 196.176 56.0284 194.306 56.0284V60.0284ZM201.066 58.3186C203.068 57.1525 204.637 55.5307 205.748 53.4859L202.233 51.5766C201.469 52.9835 200.417 54.0676 199.053 54.8618L201.066 58.3186ZM205.744 53.4934C206.885 51.414 207.429 49.0722 207.429 46.5227H203.429C203.429 48.4903 203.013 50.1542 202.237 51.5691L205.744 53.4934ZM207.429 46.5227C207.429 43.9305 206.874 41.5598 205.703 39.4718L202.214 41.4288C203.003 42.8351 203.429 44.5127 203.429 46.5227H207.429ZM205.712 39.4881C204.579 37.4238 202.988 35.7912 200.96 34.6256L198.966 38.0932C200.348 38.8878 201.42 39.9824 202.205 41.4125L205.712 39.4881ZM200.96 34.6256C198.925 33.4551 196.631 32.8816 194.134 32.8573L194.095 36.8572C195.987 36.8755 197.593 37.3034 198.966 38.0932L200.96 34.6256ZM194.115 32.8572C191.914 32.8572 189.779 33.3114 187.723 34.206L189.32 37.8736C190.887 37.1915 192.48 36.8572 194.115 36.8572V32.8572ZM187.715 34.2095C185.656 35.1167 183.962 36.3965 182.723 38.0839L185.947 40.4516C186.71 39.4117 187.808 38.5395 189.328 37.8701L187.715 34.2095ZM184.688 37.2991L172.383 35.0939L171.677 39.0311L183.982 41.2364L184.688 37.2991ZM174.022 37.2414L177.122 2.72436L173.138 2.36654L170.038 36.8836L174.022 37.2414ZM175.13 4.54545H215.144V0.545452H175.13V4.54545ZM213.144 2.54545V13.8594H217.144V2.54545H213.144ZM215.144 11.8594H186.54V15.8594H215.144V11.8594ZM184.551 13.6538L182.857 30.0494L186.836 30.4605L188.529 14.0649L184.551 13.6538ZM184.846 32.255H185.23V28.255H184.846V32.255ZM186.86 31.4134C187.757 30.1506 189.18 29.006 191.273 28.0458L189.605 24.4101C187.053 25.5807 185.003 27.1208 183.599 29.0966L186.86 31.4134ZM191.273 28.0458C193.303 27.1148 195.613 26.63 198.237 26.63V22.63C195.11 22.63 192.22 23.2105 189.605 24.4101L191.273 28.0458ZM198.237 26.63C201.852 26.63 205.006 27.4756 207.755 29.1255L209.813 25.6955C206.384 23.638 202.507 22.63 198.237 22.63V26.63ZM207.755 29.1255C210.534 30.7928 212.729 33.0774 214.353 36.0164L217.854 34.0816C215.898 30.5433 213.213 27.7356 209.813 25.6955L207.755 29.1255ZM214.355 36.0213C215.956 38.8983 216.776 42.2584 216.756 46.161L220.756 46.1813C220.779 41.689 219.83 37.6344 217.851 34.0767L214.355 36.0213ZM216.756 46.1808C216.776 50.2627 215.833 53.8157 213.975 56.9004L217.401 58.9646C219.676 55.1886 220.779 50.9007 220.756 46.1615L216.756 46.1808ZM213.973 56.9035C212.124 59.9852 209.534 62.4221 206.151 64.2207L208.03 67.7523C212.02 65.6305 215.161 62.6981 217.403 58.9615L213.973 56.9035ZM206.155 64.2187C202.824 65.9809 198.894 66.8949 194.306 66.8949V70.8949C199.434 70.8949 204.027 69.8699 208.026 67.7543L206.155 64.2187ZM265.897 45.0526L264.115 44.1444L264.112 44.1512L265.897 45.0526ZM270.787 39.7472L271.841 41.447L271.846 41.4441L270.787 39.7472ZM286.544 39.7152L285.49 41.415L285.497 41.4197L286.544 39.7152ZM291.402 45.0206L289.606 45.9012L289.611 45.9116L289.616 45.922L291.402 45.0206ZM291.402 62.9822L293.187 63.8836L293.19 63.8767L291.402 62.9822ZM286.512 68.2557L285.465 66.5512L285.459 66.555L285.453 66.5587L286.512 68.2557ZM270.755 68.2557L271.821 66.5635L271.815 66.5597L271.809 66.5559L270.755 68.2557ZM265.897 62.9822L264.108 63.8767L264.112 63.8836L265.897 62.9822ZM274.622 60.0099L272.862 60.9598L272.868 60.9706L272.874 60.9812L274.622 60.0099ZM282.612 60.0419L280.859 59.0802L280.853 59.0912L280.847 59.1022L282.612 60.0419ZM282.676 47.929L280.893 48.8347L282.676 47.929ZM274.654 47.929L272.906 46.9577L274.654 47.929ZM232.339 7.56321L234.117 8.4783L234.121 8.47131L232.339 7.56321ZM237.229 2.25781L236.183 0.553322L236.175 0.558006L237.229 2.25781ZM252.953 2.25781L251.9 3.95762V3.95762L252.953 2.25781ZM257.811 7.56321L256.022 8.45764L256.026 8.46456L257.811 7.56321ZM257.779 25.5249L256.001 24.6098L255.997 24.6166L255.994 24.6235L257.779 25.5249ZM252.889 30.7983L253.931 32.5057L253.936 32.5028L252.889 30.7983ZM237.133 30.7663L236.067 32.4585L236.077 32.4647L236.087 32.4708L237.133 30.7663ZM232.275 25.4929L230.483 26.3804L230.488 26.3908L230.493 26.4013L232.275 25.4929ZM241.096 22.5845L239.343 23.5462L239.348 23.557L239.354 23.5677L241.096 22.5845ZM249.022 22.5845L247.269 21.6228L247.263 21.6338L247.257 21.6448L249.022 22.5845ZM249.086 10.4716L250.869 9.56586V9.56586L249.086 10.4716ZM241.096 10.5036L242.862 11.4419V11.4419L241.096 10.5036ZM234.864 68L233.216 66.8669L231.062 70H234.864V68ZM279.864 2.54545V0.545452H278.812L278.216 1.4124L279.864 2.54545ZM288.237 2.54545L289.886 3.67851L292.04 0.545452H288.237V2.54545ZM243.237 68V70H244.29L244.886 69.1331L243.237 68ZM266.235 55.7273V52.2756H262.235V55.7273H266.235ZM266.235 52.2756C266.235 49.9467 266.725 47.8507 267.683 45.9539L264.112 44.1512C262.854 46.6436 262.235 49.3629 262.235 52.2756H266.235ZM267.679 45.9607C268.641 44.0729 270.018 42.5771 271.841 41.447L269.733 38.0474C267.295 39.5592 265.412 41.6004 264.115 44.1444L267.679 45.9607ZM271.846 41.4441C273.617 40.3391 275.852 39.7337 278.649 39.7337V35.7337C275.268 35.7337 272.261 36.4705 269.729 38.0502L271.846 41.4441ZM278.649 39.7337C281.501 39.7337 283.746 40.3338 285.49 41.415L287.597 38.0154C285.08 36.4546 282.062 35.7337 278.649 35.7337V39.7337ZM285.497 41.4197C287.334 42.5474 288.69 44.0335 289.606 45.9012L293.197 44.14C291.94 41.5758 290.057 39.525 287.59 38.0107L285.497 41.4197ZM289.616 45.922C290.573 47.8164 291.063 49.9227 291.063 52.2756H295.063C295.063 49.3443 294.446 46.614 293.187 44.1192L289.616 45.922ZM291.063 52.2756V55.7273H295.063V52.2756H291.063ZM291.063 55.7273C291.063 58.056 290.574 60.1656 289.613 62.0878L293.19 63.8767C294.445 61.367 295.063 58.6401 295.063 55.7273H291.063ZM289.616 62.0809C288.68 63.9351 287.31 65.4187 285.465 66.5512L287.558 69.9602C290.017 68.4507 291.907 66.4186 293.187 63.8836L289.616 62.0809ZM285.453 66.5587C283.682 67.6637 281.447 68.2692 278.649 68.2692V72.2692C282.031 72.2692 285.038 71.5323 287.57 69.9526L285.453 66.5587ZM278.649 68.2692C275.803 68.2692 273.563 67.6609 271.821 66.5635L269.689 69.9479C272.209 71.5352 275.232 72.2692 278.649 72.2692V68.2692ZM271.809 66.5559C269.985 65.4246 268.621 63.9404 267.683 62.0809L264.112 63.8836C265.389 66.4133 267.265 68.4447 269.701 69.9555L271.809 66.5559ZM267.686 62.0878C266.725 60.1656 266.235 58.056 266.235 55.7273H262.235C262.235 58.6401 262.854 61.367 264.108 63.8767L267.686 62.0878ZM271.536 52.2756V55.7273H275.536V52.2756H271.536ZM271.536 55.7273C271.536 57.5745 271.982 59.3282 272.862 60.9598L276.382 59.0601C275.814 58.007 275.536 56.9056 275.536 55.7273H271.536ZM272.874 60.9812C274.069 63.1321 276.207 64.0234 278.649 64.0234V60.0234C277.214 60.0234 276.667 59.5724 276.371 59.0387L272.874 60.9812ZM278.649 64.0234C281.072 64.0234 283.222 63.1533 284.378 60.9816L280.847 59.1022C280.597 59.5725 280.104 60.0234 278.649 60.0234V64.0234ZM284.366 61.0036C285.258 59.378 285.699 57.6075 285.699 55.7273H281.699C281.699 56.9578 281.416 58.0637 280.859 59.0802L284.366 61.0036ZM285.699 55.7273V52.2756H281.699V55.7273H285.699ZM285.699 52.2756C285.699 50.4162 285.289 48.6557 284.46 47.0232L280.893 48.8347C281.428 49.8869 281.699 51.0242 281.699 52.2756H285.699ZM284.46 47.0232C283.323 44.7849 281.115 43.9155 278.649 43.9155V47.9155C280.19 47.9155 280.667 48.3884 280.893 48.8347L284.46 47.0232ZM278.649 43.9155C276.218 43.9155 274.097 44.8144 272.906 46.9577L276.403 48.9003C276.703 48.3588 277.246 47.9155 278.649 47.9155V43.9155ZM272.906 46.9577C271.993 48.6011 271.536 50.3849 271.536 52.2756H275.536C275.536 51.0555 275.824 49.9415 276.403 48.9003L272.906 46.9577ZM232.645 18.2699V14.8182H228.645V18.2699H232.645ZM232.645 14.8182C232.645 12.4715 233.144 10.3701 234.117 8.47829L230.561 6.64812C229.276 9.14554 228.645 11.8808 228.645 14.8182H232.645ZM234.121 8.47131C235.083 6.58358 236.46 5.0878 238.283 3.95762L236.175 0.558006C233.737 2.06987 231.854 4.11102 230.557 6.6551L234.121 8.47131ZM238.275 3.96229C240.053 2.87103 242.273 2.27628 245.027 2.27628V-1.72372C241.688 -1.72372 238.709 -0.997458 236.183 0.553339L238.275 3.96229ZM245.027 2.27628C247.904 2.27628 250.158 2.87761 251.9 3.95762L254.007 0.558008C251.488 -1.00404 248.458 -1.72372 245.027 -1.72372V2.27628ZM251.9 3.95762C253.719 5.08589 255.082 6.57722 256.022 8.45763L259.6 6.66878C258.324 4.11738 256.449 2.07178 254.007 0.558006L251.9 3.95762ZM256.026 8.46456C256.982 10.3591 257.473 12.4653 257.473 14.8182H261.473C261.473 11.8869 260.856 9.15656 259.597 6.66185L256.026 8.46456ZM257.473 14.8182V18.2699H261.473V14.8182H257.473ZM257.473 18.2699C257.473 20.6166 256.974 22.718 256.001 24.6098L259.558 26.4399C260.843 23.9425 261.473 21.2072 261.473 18.2699H257.473ZM255.994 24.6235C255.058 26.4777 253.688 27.9613 251.843 29.0938L253.936 32.5028C256.395 30.9933 258.285 28.9612 259.565 26.4262L255.994 24.6235ZM251.848 29.0909C250.1 30.1573 247.861 30.7479 245.027 30.7479V34.7479C248.416 34.7479 251.418 34.0388 253.931 32.5057L251.848 29.0909ZM245.027 30.7479C242.2 30.7479 239.951 30.1493 238.179 29.0619L236.087 32.4708C238.619 34.0254 241.633 34.7479 245.027 34.7479V30.7479ZM238.199 29.0742C236.363 27.9174 234.996 26.4262 234.057 24.5845L230.493 26.4013C231.77 28.9062 233.642 30.9307 236.067 32.4585L238.199 29.0742ZM234.067 24.6054C233.127 22.7059 232.645 20.6049 232.645 18.2699H228.645C228.645 21.1764 229.25 23.8907 230.483 26.3804L234.067 24.6054ZM238.01 14.8182V18.2699H242.009V14.8182H238.01ZM238.01 18.2699C238.01 20.1501 238.451 21.9206 239.343 23.5462L242.85 21.6229C242.292 20.6064 242.009 19.5004 242.009 18.2699H238.01ZM239.354 23.5677C240.543 25.6737 242.631 26.5661 245.027 26.5661V22.5661C243.674 22.5661 243.14 22.1374 242.838 21.6013L239.354 23.5677ZM245.027 26.5661C247.46 26.5661 249.628 25.7035 250.788 23.5242L247.257 21.6448C247.01 22.1075 246.515 22.5661 245.027 22.5661V26.5661ZM250.776 23.5462C251.667 21.9206 252.109 20.1501 252.109 18.2699H248.109C248.109 19.5004 247.826 20.6064 247.269 21.6228L250.776 23.5462ZM252.109 18.2699V14.8182H248.109V18.2699H252.109ZM252.109 14.8182C252.109 12.9588 251.699 11.1983 250.869 9.56586L247.303 11.3773C247.838 12.4296 248.109 13.5668 248.109 14.8182H252.109ZM250.869 9.56586C249.729 7.32006 247.503 6.45809 245.027 6.45809V10.4581C246.6 10.4581 247.08 10.9385 247.303 11.3773L250.869 9.56586ZM245.027 6.45809C242.592 6.45809 240.486 7.38816 239.33 9.56524L242.862 11.4419C243.155 10.8917 243.67 10.4581 245.027 10.4581V6.45809ZM239.33 9.56524C238.455 11.2116 238.01 12.9712 238.01 14.8182H242.009C242.009 13.6396 242.288 12.5228 242.862 11.4419L239.33 9.56524ZM236.512 69.1331L281.512 3.67851L278.216 1.4124L233.216 66.8669L236.512 69.1331ZM279.864 4.54545H288.237V0.545452H279.864V4.54545ZM286.589 1.4124L241.589 66.8669L244.886 69.1331L289.886 3.67851L286.589 1.4124ZM243.237 66H234.864V70H243.237V66Z" fill="url(#paint0_linear_3697_50726)" fill-opacity="0.96"/>
<defs>
<linearGradient id="paint0_linear_3697_50726" x1="148" y1="-19" x2="148" y2="83" gradientUnits="userSpaceOnUse">
<stop stop-color="#9453F9"/>
<stop offset="1" stop-color="#DB30A7"/>
</linearGradient>
</defs>
</svg>
