<svg width="23" height="25" viewBox="0 0 23 25" fill="none" xmlns="http://www.w3.org/2000/svg">
<path d="M15.1667 14.4386C15.6722 14.4386 16.0903 14.2555 16.4208 13.8894C16.7514 13.5233 16.9167 13.0602 16.9167 12.5002C16.9167 11.9403 16.7514 11.4772 16.4208 11.1111C16.0903 10.7449 15.6722 10.5619 15.1667 10.5619C14.6611 10.5619 14.2431 10.7449 13.9125 11.1111C13.5819 11.4772 13.4167 11.9403 13.4167 12.5002C13.4167 13.0602 13.5819 13.5233 13.9125 13.8894C14.2431 14.2555 14.6611 14.4386 15.1667 14.4386ZM2.33333 24.1304C1.69167 24.1304 1.14217 23.8775 0.684833 23.3718C0.228278 22.8653 0 22.2566 0 21.5459V3.45459C0 2.74386 0.228278 2.13522 0.684833 1.62866C1.14217 1.12296 1.69167 0.870117 2.33333 0.870117H18.6667C19.3083 0.870117 19.8578 1.12296 20.3152 1.62866C20.7717 2.13522 21 2.74386 21 3.45459V6.68518H18.6667V3.45459H2.33333V21.5459H18.6667V18.3153H21V21.5459C21 22.2566 20.7717 22.8653 20.3152 23.3718C19.8578 23.8775 19.3083 24.1304 18.6667 24.1304H2.33333ZM11.6667 18.9614C11.025 18.9614 10.4759 18.7086 10.0193 18.2029C9.562 17.6963 9.33333 17.0877 9.33333 16.3769V8.62353C9.33333 7.9128 9.562 7.30416 10.0193 6.7976C10.4759 6.2919 11.025 6.03906 11.6667 6.03906H19.8333C20.475 6.03906 21.0245 6.2919 21.4818 6.7976C21.9384 7.30416 22.1667 7.9128 22.1667 8.62353V16.3769C22.1667 17.0877 21.9384 17.6963 21.4818 18.2029C21.0245 18.7086 20.475 18.9614 19.8333 18.9614H11.6667ZM19.8333 16.3769V8.62353H11.6667V16.3769H19.8333Z" fill="#D8D1E6"/>
</svg>
