<svg width="226" height="112" viewBox="0 0 226 112" fill="none" xmlns="http://www.w3.org/2000/svg">
<g clip-path="url(#clip0_3757_50868)">
<mask id="mask0_3757_50868" style="mask-type:luminance" maskUnits="userSpaceOnUse" x="0" y="0" width="226" height="112">
<path d="M226 0H0V112H226V0Z" fill="white"/>
</mask>
<g mask="url(#mask0_3757_50868)">
<mask id="mask1_3757_50868" style="mask-type:luminance" maskUnits="userSpaceOnUse" x="57" y="-6" width="112" height="124">
<path d="M57.0176 -5.9165H168.982V117.917H57.0176V-5.9165Z" fill="white"/>
</mask>
<g mask="url(#mask1_3757_50868)">
<path d="M124.84 45.609C129.656 58.8949 125.305 72.7184 115.122 76.4846C104.939 80.2508 92.7802 72.5336 87.9644 59.2478C83.1486 45.962 87.4995 32.1385 97.6823 28.3723C107.865 24.606 120.024 32.323 124.84 45.609Z" fill="#00DFAC"/>
<path d="M93.5571 36.7188C104.136 27.408 118.501 26.5219 125.642 34.7395C132.783 42.957 129.996 57.1665 119.417 66.4771C108.838 75.788 94.4734 76.6739 87.3324 68.4565C80.1912 60.239 82.978 46.0295 93.5571 36.7188Z" fill="#36C6FF"/>
<path d="M97.5297 13.7721C97.0388 14.8941 95.7434 15.4055 94.6362 14.9144C93.5291 14.4233 93.0295 13.1156 93.5203 11.9936C94.011 10.8716 95.3064 10.3602 96.4136 10.8513C97.5209 11.3425 98.0205 12.6501 97.5297 13.7721Z" fill="#00EABA"/>
<path d="M126.371 87.9235C126.696 85.6522 128.773 84.0769 131.01 84.4048C133.247 84.7328 134.797 86.8398 134.472 89.1111C134.146 91.3826 132.069 92.9578 129.832 92.6298C127.595 92.302 126.045 90.1948 126.371 87.9235Z" fill="#006DF8"/>
<path d="M100.55 22.4521C99.2892 25.3342 95.9615 26.6479 93.1173 25.3862C90.2732 24.1247 88.9898 20.7658 90.2505 17.8836C91.5113 15.0015 94.8391 13.6877 97.6832 14.9492C100.527 16.2107 101.811 19.57 100.55 22.4521Z" fill="#006DF8"/>
<path d="M124.924 65.0563C124.611 65.7717 123.785 66.0977 123.079 65.7846C122.373 65.4714 122.055 64.6375 122.368 63.9222C122.681 63.2068 123.507 62.8807 124.212 63.1939C124.918 63.5071 125.237 64.3408 124.924 65.0563Z" fill="#39FF55"/>
<path d="M138.098 52.6644C138.892 66.8402 131.237 76.0682 120.629 78.0273C110.021 79.9863 97.465 72.5117 94.9142 58.5991C92.3635 44.6863 100.758 34.8098 111.366 32.8506C121.974 30.8915 137.275 38.7076 138.098 52.6644Z" fill="#00B499"/>
</g>
<mask id="mask2_3757_50868" style="mask-type:luminance" maskUnits="userSpaceOnUse" x="0" y="0" width="226" height="112">
<path d="M0 0H226V112H0V0Z" fill="white"/>
</mask>
<g mask="url(#mask2_3757_50868)">
<mask id="mask3_3757_50868" style="mask-type:luminance" maskUnits="userSpaceOnUse" x="0" y="0" width="226" height="112">
<path d="M0 0H226V112H0V0Z" fill="white"/>
</mask>
<g mask="url(#mask3_3757_50868)">
<path d="M127.478 32.5497H123.998V39.3051C123.998 40.9476 122.667 42.2839 121.031 42.2839C119.395 42.2839 118.065 40.9476 118.065 39.3051V32.5497H100.059V39.3051C100.059 40.9476 98.728 42.2839 97.0921 42.2839C95.4562 42.2839 94.1252 40.9476 94.1252 39.3051V32.5497H90.6455C87.8156 32.5497 85.5 34.8748 85.5 37.7161V74.6953C85.5 77.5366 87.8156 79.8613 90.6455 79.8613H127.478C130.308 79.8613 132.623 77.5366 132.623 74.6953V37.7161C132.623 34.8748 130.308 32.5497 127.478 32.5497Z" fill="#C74D28"/>
<mask id="mask4_3757_50868" style="mask-type:luminance" maskUnits="userSpaceOnUse" x="0" y="-21" width="226" height="112">
<path d="M0 -21H226V91H0V-21Z" fill="white"/>
</mask>
<g mask="url(#mask4_3757_50868)">
<path d="M128.038 82.7247H90.0857C87.5636 82.7247 85.5 80.6471 85.5 78.1085V49.664C85.5 47.1251 87.5636 45.0479 90.0857 45.0479H128.038C130.56 45.0479 132.623 47.1251 132.623 49.664V78.1085C132.623 80.6471 130.56 82.7247 128.038 82.7247Z" fill="#DBDBDB"/>
<path d="M128.131 81.2117H89.9929C87.5218 81.2117 85.5 79.1765 85.5 76.689V49.5707C85.5 47.0829 87.5218 45.0483 89.9929 45.0483H128.131C130.602 45.0483 132.624 47.0829 132.624 49.5707V76.689C132.624 79.1765 130.602 81.2117 128.131 81.2117Z" fill="#EAEAEA"/>
<path d="M127.478 32.2612H123.998V39.0351C123.998 40.6819 122.667 42.021 121.031 42.021C119.395 42.021 118.065 40.6819 118.065 39.0351V32.2612H100.059V39.0351C100.059 40.6819 98.728 42.021 97.0921 42.021C95.4562 42.021 94.1252 40.6819 94.1252 39.0351V32.2612H90.6455C87.8156 32.2612 85.5 34.5922 85.5 37.4412V74.5181C85.5 77.3671 87.8156 79.6981 90.6455 79.6981H127.478C130.308 79.6981 132.623 77.3671 132.623 74.5181V37.4412C132.623 34.5922 130.308 32.2612 127.478 32.2612Z" fill="white"/>
<path d="M127.478 32.2612H123.998V38.8836C123.998 40.53 122.667 41.8698 121.031 41.8698C119.395 41.8698 118.065 40.53 118.065 38.8836V32.2612H100.059V38.8836C100.059 40.53 98.728 41.8698 97.0921 41.8698C95.4562 41.8698 94.1252 40.53 94.1252 38.8836V32.2612H90.6455C87.8156 32.2612 85.5 34.5926 85.5 37.4416V45.0474H132.623V37.4416C132.623 34.5926 130.308 32.2612 127.478 32.2612Z" fill="#603AB4"/>
<path d="M127.478 32.2612H123.998V38.8836C123.998 40.53 122.667 41.8698 121.031 41.8698C119.395 41.8698 118.065 40.53 118.065 38.8836V32.2612H100.059V38.8836C100.059 40.53 98.728 41.8698 97.0921 41.8698C95.4562 41.8698 94.1252 40.53 94.1252 38.8836V32.2612H90.6455C87.8156 32.2612 85.5 34.5926 85.5 37.4416V45.0474H132.623V37.4416C132.623 34.5926 130.308 32.2612 127.478 32.2612Z" fill="#603AB4"/>
<path d="M100.006 55.1104C100.006 56.2084 99.1222 57.0981 98.0315 57.0981C96.9408 57.0981 96.0566 56.2084 96.0566 55.1104C96.0566 54.0121 96.9408 53.1221 98.0315 53.1221C99.1222 53.1221 100.006 54.0121 100.006 55.1104Z" fill="#603AB4"/>
<path d="M107.36 55.1104C107.36 56.2084 106.475 57.0981 105.384 57.0981C104.294 57.0981 103.409 56.2084 103.409 55.1104C103.409 54.0121 104.294 53.1221 105.384 53.1221C106.475 53.1221 107.36 54.0121 107.36 55.1104Z" fill="#603AB4"/>
<path d="M114.714 55.1104C114.714 56.2084 113.829 57.0981 112.739 57.0981C111.648 57.0981 110.764 56.2084 110.764 55.1104C110.764 54.0121 111.648 53.1221 112.739 53.1221C113.829 53.1221 114.714 54.0121 114.714 55.1104Z" fill="#603AB4"/>
<path d="M122.068 55.1104C122.068 56.2084 121.184 57.0981 120.093 57.0981C119.002 57.0981 118.118 56.2084 118.118 55.1104C118.118 54.0121 119.002 53.1221 120.093 53.1221C121.184 53.1221 122.068 54.0121 122.068 55.1104Z" fill="#603AB4"/>
<path d="M100.006 62.0128C100.006 63.1107 99.1222 64.0004 98.0315 64.0004C96.9408 64.0004 96.0566 63.1107 96.0566 62.0128C96.0566 60.9145 96.9408 60.0244 98.0315 60.0244C99.1222 60.0244 100.006 60.9145 100.006 62.0128Z" fill="#603AB4"/>
<path d="M107.36 62.0128C107.36 63.1107 106.475 64.0004 105.384 64.0004C104.294 64.0004 103.409 63.1107 103.409 62.0128C103.409 60.9145 104.294 60.0244 105.384 60.0244C106.475 60.0244 107.36 60.9145 107.36 62.0128Z" fill="#603AB4"/>
<path d="M114.714 62.0128C114.714 63.1107 113.829 64.0004 112.739 64.0004C111.648 64.0004 110.764 63.1107 110.764 62.0128C110.764 60.9145 111.648 60.0244 112.739 60.0244C113.829 60.0244 114.714 60.9145 114.714 62.0128Z" fill="#603AB4"/>
<path d="M122.068 62.0128C122.068 63.1107 121.184 64.0004 120.093 64.0004C119.002 64.0004 118.118 63.1107 118.118 62.0128C118.118 60.9145 119.002 60.0244 120.093 60.0244C121.184 60.0244 122.068 60.9145 122.068 62.0128Z" fill="#603AB4"/>
<path d="M100.006 68.9144C100.006 70.0127 99.1222 70.9028 98.0315 70.9028C96.9408 70.9028 96.0566 70.0127 96.0566 68.9144C96.0566 67.8165 96.9408 66.9268 98.0315 66.9268C99.1222 66.9268 100.006 67.8165 100.006 68.9144Z" fill="#603AB4"/>
<path d="M107.36 68.9144C107.36 70.0127 106.475 70.9028 105.384 70.9028C104.294 70.9028 103.409 70.0127 103.409 68.9144C103.409 67.8165 104.294 66.9268 105.384 66.9268C106.475 66.9268 107.36 67.8165 107.36 68.9144Z" fill="#603AB4"/>
<path d="M114.714 68.9144C114.714 70.0127 113.829 70.9028 112.739 70.9028C111.648 70.9028 110.764 70.0127 110.764 68.9144C110.764 67.8165 111.648 66.9268 112.739 66.9268C113.829 66.9268 114.714 67.8165 114.714 68.9144Z" fill="#603AB4"/>
<path d="M94.1252 32.2617H92.9229V38.8837C92.9229 40.5301 94.2531 41.8699 95.889 41.8699C96.0952 41.8699 96.2958 41.8489 96.4902 41.8083C95.2997 41.5605 94.3679 40.5928 94.1655 39.379C94.1652 39.3762 94.1648 39.3737 94.1645 39.3709L94.1641 39.3706C94.1617 39.3548 94.1592 39.3391 94.1568 39.3233V39.3219C94.1565 39.3198 94.1565 39.3174 94.1561 39.3149L94.1554 39.3135C94.1551 39.3114 94.1551 39.3093 94.1547 39.3069L94.154 39.3051C94.154 39.3027 94.1537 39.3006 94.1533 39.2981V39.2974L94.1492 39.2666L94.1488 39.2652C94.1485 39.2631 94.1488 39.261 94.1485 39.2589C94.1485 39.2589 94.1478 39.2572 94.1478 39.2565C94.1474 39.2544 94.1478 39.2526 94.1474 39.2505C94.1474 39.2498 94.1471 39.2481 94.1471 39.2481C94.1467 39.246 94.1464 39.2439 94.146 39.2418V39.2397C94.146 39.2376 94.1453 39.2355 94.145 39.2334C94.145 39.2334 94.145 39.2316 94.1446 39.2309C94.1446 39.2288 94.1446 39.2267 94.1443 39.225C94.1443 39.2243 94.1443 39.2232 94.1443 39.2232C94.1436 39.2162 94.1422 39.2096 94.1415 39.2026C94.1415 39.2015 94.1419 39.2005 94.1415 39.1994L94.1412 39.1945C94.1408 39.1931 94.1405 39.1917 94.1405 39.1907L94.1401 39.1854C94.1401 39.1844 94.1398 39.183 94.1398 39.1816C94.1398 39.1802 94.1391 39.1788 94.1391 39.177L94.1387 39.1728C94.1384 39.1714 94.1384 39.1697 94.1384 39.1679C94.138 39.1669 94.1384 39.1658 94.138 39.1644C94.138 39.1627 94.1377 39.1609 94.1373 39.1592C94.1373 39.1581 94.1373 39.1571 94.137 39.1557C94.1366 39.1522 94.1363 39.1487 94.136 39.1452C94.136 39.1441 94.136 39.1434 94.136 39.142C94.1356 39.1406 94.136 39.1389 94.1356 39.1375C94.1356 39.1361 94.1356 39.135 94.1353 39.1336C94.1353 39.1319 94.1349 39.1301 94.1346 39.1287C94.1346 39.1273 94.1346 39.1259 94.1342 39.1245C94.1342 39.1231 94.1342 39.1214 94.1339 39.12C94.1339 39.1186 94.1342 39.1172 94.1339 39.1154C94.1339 39.114 94.1339 39.1126 94.1335 39.1109C94.1335 39.1095 94.1332 39.1084 94.1328 39.1067C94.1328 39.1053 94.1328 39.1035 94.1325 39.1021C94.1325 39.1007 94.1328 39.099 94.1325 39.0976C94.1325 39.0962 94.1325 39.0944 94.1325 39.0934C94.1325 39.0916 94.1321 39.0899 94.1321 39.0885C94.1321 39.086 94.1314 39.0839 94.1314 39.0815C94.1311 39.0797 94.1311 39.078 94.1311 39.0759C94.1307 39.0745 94.1311 39.0731 94.1311 39.0717C94.1311 39.0703 94.1307 39.0685 94.1307 39.0668C94.1307 39.0654 94.1304 39.0643 94.13 39.0629C94.13 39.0612 94.13 39.0594 94.1297 39.058C94.1297 39.0566 94.1297 39.0549 94.1297 39.0535C94.1293 39.0521 94.1293 39.0503 94.1293 39.0493C94.1293 39.0475 94.1297 39.0461 94.1293 39.0447C94.1293 39.043 94.1293 39.0412 94.1293 39.0398C94.129 39.0384 94.129 39.037 94.129 39.0356C94.129 39.0342 94.1283 39.0325 94.1283 39.0307C94.1283 39.0293 94.1283 39.0279 94.1283 39.0269C94.128 39.0244 94.128 39.0223 94.128 39.0206C94.128 39.0192 94.128 39.0181 94.128 39.0171C94.128 39.0143 94.128 39.0115 94.1276 39.009C94.1276 39.008 94.1276 39.0069 94.1276 39.0059C94.1276 39.0038 94.1273 39.002 94.1269 38.9999C94.1269 38.9989 94.1269 38.9975 94.1269 38.9964C94.1269 38.9947 94.1269 38.9926 94.1266 38.9912C94.1266 38.9898 94.1266 38.9884 94.1266 38.9873C94.1266 38.9856 94.1269 38.9835 94.1266 38.9817V38.9779C94.1266 38.9765 94.1266 38.9747 94.1266 38.9726C94.1262 38.9716 94.1262 38.9702 94.1262 38.9691C94.1262 38.967 94.1262 38.9649 94.1262 38.9628V38.9604C94.1259 38.9576 94.1255 38.9548 94.1255 38.952V38.9502C94.1255 38.9478 94.1255 38.945 94.1252 38.9422V38.939C94.1252 38.9369 94.1252 38.9348 94.1252 38.9331V38.9296V38.9236C94.1248 38.9226 94.1252 38.9212 94.1252 38.9201V38.9149V38.911C94.1252 38.9093 94.1252 38.9072 94.1252 38.9054V38.9019V38.8956V38.8928V38.8837V32.2617Z" fill="#C25F43"/>
<path d="M118.065 32.2617H116.862V38.8837C116.862 40.5301 118.193 41.8699 119.829 41.8699C120.035 41.8699 120.236 41.8489 120.43 41.8083C119.195 41.5514 118.238 40.5189 118.086 39.2407C118.084 39.225 118.082 39.2092 118.081 39.1928L118.081 39.1914C118.08 39.1889 118.08 39.1868 118.08 39.1844C118.08 39.1844 118.08 39.1833 118.08 39.1826C118.08 39.1805 118.079 39.1784 118.079 39.176L118.079 39.1742C118.079 39.1718 118.079 39.1697 118.078 39.1672V39.1665C118.077 39.156 118.076 39.1459 118.075 39.1357L118.075 39.134C118.075 39.1319 118.075 39.1298 118.075 39.1277C118.075 39.1266 118.074 39.1256 118.074 39.1249C118.074 39.1231 118.074 39.121 118.074 39.1193C118.074 39.1182 118.074 39.1172 118.074 39.1161C118.074 39.1144 118.073 39.1123 118.073 39.1105C118.073 39.1095 118.073 39.1084 118.073 39.1074C118.073 39.1056 118.073 39.1035 118.073 39.1018C118.073 39.1007 118.073 39.0997 118.072 39.0986C118.072 39.0965 118.072 39.0948 118.072 39.0934V39.0902L118.071 39.079V39.0762C118.071 39.0745 118.071 39.0727 118.071 39.0713C118.071 39.0696 118.071 39.0685 118.071 39.0671C118.071 39.0654 118.071 39.064 118.07 39.0626V39.058C118.07 39.0566 118.07 39.0549 118.07 39.0535C118.07 39.0517 118.069 39.0503 118.069 39.0493V39.0447C118.069 39.043 118.069 39.0416 118.069 39.0398C118.069 39.0384 118.069 39.037 118.069 39.0356V39.0311C118.068 39.0297 118.068 39.0279 118.068 39.0265C118.068 39.0251 118.068 39.0234 118.068 39.0216C118.068 39.0195 118.068 39.0171 118.068 39.0146V39.009C118.067 39.008 118.067 39.0066 118.067 39.0052V39.0003C118.067 38.9989 118.067 38.9975 118.067 38.9961V38.9912C118.067 38.9898 118.067 38.9884 118.067 38.987V38.9821C118.067 38.9807 118.066 38.9793 118.066 38.9779V38.973V38.9688C118.066 38.967 118.066 38.9653 118.066 38.9632V38.96C118.066 38.9579 118.066 38.9555 118.066 38.953V38.9492V38.9422C118.066 38.9411 118.066 38.9397 118.065 38.9387V38.9331V38.9296V38.9236V38.9201V38.9149C118.065 38.9135 118.065 38.9124 118.065 38.911V38.9054V38.9019V38.8956V38.8928V38.8837V32.2617Z" fill="#C25F43"/>
<path d="M122.068 68.9144C122.068 70.0127 121.184 70.9028 120.093 70.9028C119.002 70.9028 118.118 70.0127 118.118 68.9144C118.118 67.8165 119.002 66.9268 120.093 66.9268C121.184 66.9268 122.068 67.8165 122.068 68.9144Z" fill="#603AB4"/>
<path d="M97.0917 24.5C95.6286 24.5 94.4385 25.6981 94.4385 27.1709V36.2411C94.4385 37.7139 95.6286 38.9123 97.0917 38.9123C98.5548 38.9123 99.745 37.7139 99.745 36.2411V27.1709C99.745 25.6981 98.5548 24.5 97.0917 24.5Z" fill="#EAEAEA"/>
<path d="M121.107 24.5908C119.644 24.5908 118.454 25.7892 118.454 27.262V36.3323C118.454 37.8051 119.644 39.0031 121.107 39.0031C122.57 39.0031 123.761 37.8051 123.761 36.3323V27.262C123.761 25.7892 122.57 24.5908 121.107 24.5908Z" fill="#EAEAEA"/>
<path d="M122.177 29.3434C121.847 29.3434 121.576 29.0711 121.576 28.7383V27.3005C121.576 26.9673 121.847 26.6953 122.177 26.6953C122.508 26.6953 122.778 26.9673 122.778 27.3005V28.7383C122.778 29.0711 122.508 29.3434 122.177 29.3434Z" fill="white"/>
<path d="M122.177 35.8117C121.847 35.8117 121.576 35.5397 121.576 35.2069V31.486C121.576 31.1532 121.847 30.8809 122.177 30.8809C122.508 30.8809 122.778 31.1532 122.778 31.486V35.2069C122.778 35.5397 122.508 35.8117 122.177 35.8117Z" fill="white"/>
<path d="M98.1324 29.3434C97.8018 29.3434 97.5312 29.0711 97.5312 28.7383V27.3005C97.5312 26.9673 97.8018 26.6953 98.1324 26.6953C98.4631 26.6953 98.7336 26.9673 98.7336 27.3005V28.7383C98.7336 29.0711 98.4631 29.3434 98.1324 29.3434Z" fill="white"/>
<path d="M98.1324 35.8117C97.8018 35.8117 97.5312 35.5397 97.5312 35.2069V31.486C97.5312 31.1532 97.8018 30.8809 98.1324 30.8809C98.4631 30.8809 98.7336 31.1532 98.7336 31.486V35.2069C98.7336 35.5397 98.4631 35.8117 98.1324 35.8117Z" fill="white"/>
</g>
</g>
</g>
<mask id="mask5_3757_50868" style="mask-type:luminance" maskUnits="userSpaceOnUse" x="0" y="0" width="226" height="112">
<path d="M0 0H226V112H0V0Z" fill="white"/>
</mask>
<g mask="url(#mask5_3757_50868)">
<mask id="mask6_3757_50868" style="mask-type:luminance" maskUnits="userSpaceOnUse" x="0" y="0" width="226" height="112">
<path d="M0 0H226V112H0V0Z" fill="white"/>
</mask>
<g mask="url(#mask6_3757_50868)">
<mask id="mask7_3757_50868" style="mask-type:luminance" maskUnits="userSpaceOnUse" x="0" y="-21" width="226" height="112">
<path d="M0 -21H226V91H0V-21Z" fill="white"/>
</mask>
<g mask="url(#mask7_3757_50868)">
<path d="M128.038 82.7247H90.0857C87.5636 82.7247 85.5 80.6471 85.5 78.1085V49.664C85.5 47.1251 87.5636 45.0479 90.0857 45.0479H128.038C130.56 45.0479 132.623 47.1251 132.623 49.664V78.1085C132.623 80.6471 130.56 82.7247 128.038 82.7247Z" fill="#DBDBDB"/>
<path d="M128.131 81.2117H89.9929C87.5218 81.2117 85.5 79.1765 85.5 76.689V49.5707C85.5 47.0829 87.5218 45.0483 89.9929 45.0483H128.131C130.602 45.0483 132.624 47.0829 132.624 49.5707V76.689C132.624 79.1765 130.602 81.2117 128.131 81.2117Z" fill="#EAEAEA"/>
<path d="M127.478 32.2612H123.998V39.0351C123.998 40.6819 122.667 42.021 121.031 42.021C119.395 42.021 118.065 40.6819 118.065 39.0351V32.2612H100.059V39.0351C100.059 40.6819 98.728 42.021 97.0921 42.021C95.4562 42.021 94.1252 40.6819 94.1252 39.0351V32.2612H90.6455C87.8156 32.2612 85.5 34.5922 85.5 37.4412V74.5181C85.5 77.3671 87.8156 79.6981 90.6455 79.6981H127.478C130.308 79.6981 132.623 77.3671 132.623 74.5181V37.4412C132.623 34.5922 130.308 32.2612 127.478 32.2612Z" fill="white"/>
<path d="M127.478 32.2612H123.998V38.8836C123.998 40.53 122.667 41.8698 121.031 41.8698C119.395 41.8698 118.065 40.53 118.065 38.8836V32.2612H100.059V38.8836C100.059 40.53 98.728 41.8698 97.0921 41.8698C95.4562 41.8698 94.1252 40.53 94.1252 38.8836V32.2612H90.6455C87.8156 32.2612 85.5 34.5926 85.5 37.4416V45.0474H132.623V37.4416C132.623 34.5926 130.308 32.2612 127.478 32.2612Z" fill="#603AB4"/>
<path d="M127.478 32.2612H123.998V38.8836C123.998 40.53 122.667 41.8698 121.031 41.8698C119.395 41.8698 118.065 40.53 118.065 38.8836V32.2612H100.059V38.8836C100.059 40.53 98.728 41.8698 97.0921 41.8698C95.4562 41.8698 94.1252 40.53 94.1252 38.8836V32.2612H90.6455C87.8156 32.2612 85.5 34.5926 85.5 37.4416V45.0474H132.623V37.4416C132.623 34.5926 130.308 32.2612 127.478 32.2612Z" fill="#603AB4"/>
<path d="M100.006 55.1104C100.006 56.2084 99.1222 57.0981 98.0315 57.0981C96.9408 57.0981 96.0566 56.2084 96.0566 55.1104C96.0566 54.0121 96.9408 53.1221 98.0315 53.1221C99.1222 53.1221 100.006 54.0121 100.006 55.1104Z" fill="#603AB4"/>
<path d="M107.36 55.1104C107.36 56.2084 106.475 57.0981 105.384 57.0981C104.294 57.0981 103.409 56.2084 103.409 55.1104C103.409 54.0121 104.294 53.1221 105.384 53.1221C106.475 53.1221 107.36 54.0121 107.36 55.1104Z" fill="#603AB4"/>
<path d="M114.714 55.1104C114.714 56.2084 113.829 57.0981 112.739 57.0981C111.648 57.0981 110.764 56.2084 110.764 55.1104C110.764 54.0121 111.648 53.1221 112.739 53.1221C113.829 53.1221 114.714 54.0121 114.714 55.1104Z" fill="#603AB4"/>
<path d="M122.068 55.1104C122.068 56.2084 121.184 57.0981 120.093 57.0981C119.002 57.0981 118.118 56.2084 118.118 55.1104C118.118 54.0121 119.002 53.1221 120.093 53.1221C121.184 53.1221 122.068 54.0121 122.068 55.1104Z" fill="#603AB4"/>
<path d="M100.006 62.0128C100.006 63.1107 99.1222 64.0004 98.0315 64.0004C96.9408 64.0004 96.0566 63.1107 96.0566 62.0128C96.0566 60.9145 96.9408 60.0244 98.0315 60.0244C99.1222 60.0244 100.006 60.9145 100.006 62.0128Z" fill="#603AB4"/>
<path d="M107.36 62.0128C107.36 63.1107 106.475 64.0004 105.384 64.0004C104.294 64.0004 103.409 63.1107 103.409 62.0128C103.409 60.9145 104.294 60.0244 105.384 60.0244C106.475 60.0244 107.36 60.9145 107.36 62.0128Z" fill="#603AB4"/>
<path d="M114.714 62.0128C114.714 63.1107 113.829 64.0004 112.739 64.0004C111.648 64.0004 110.764 63.1107 110.764 62.0128C110.764 60.9145 111.648 60.0244 112.739 60.0244C113.829 60.0244 114.714 60.9145 114.714 62.0128Z" fill="#603AB4"/>
<path d="M122.068 62.0128C122.068 63.1107 121.184 64.0004 120.093 64.0004C119.002 64.0004 118.118 63.1107 118.118 62.0128C118.118 60.9145 119.002 60.0244 120.093 60.0244C121.184 60.0244 122.068 60.9145 122.068 62.0128Z" fill="#603AB4"/>
<path d="M100.006 68.9144C100.006 70.0127 99.1222 70.9028 98.0315 70.9028C96.9408 70.9028 96.0566 70.0127 96.0566 68.9144C96.0566 67.8165 96.9408 66.9268 98.0315 66.9268C99.1222 66.9268 100.006 67.8165 100.006 68.9144Z" fill="#603AB4"/>
<path d="M107.36 68.9144C107.36 70.0127 106.475 70.9028 105.384 70.9028C104.294 70.9028 103.409 70.0127 103.409 68.9144C103.409 67.8165 104.294 66.9268 105.384 66.9268C106.475 66.9268 107.36 67.8165 107.36 68.9144Z" fill="#603AB4"/>
<path d="M114.714 68.9144C114.714 70.0127 113.829 70.9028 112.739 70.9028C111.648 70.9028 110.764 70.0127 110.764 68.9144C110.764 67.8165 111.648 66.9268 112.739 66.9268C113.829 66.9268 114.714 67.8165 114.714 68.9144Z" fill="#603AB4"/>
<path d="M94.1252 32.2617H92.9229V38.8837C92.9229 40.5301 94.2531 41.8699 95.889 41.8699C96.0952 41.8699 96.2958 41.8489 96.4902 41.8083C95.2997 41.5605 94.3679 40.5928 94.1655 39.379C94.1652 39.3762 94.1648 39.3737 94.1645 39.3709L94.1641 39.3706C94.1617 39.3548 94.1592 39.3391 94.1568 39.3233V39.3219C94.1565 39.3198 94.1565 39.3174 94.1561 39.3149L94.1554 39.3135C94.1551 39.3114 94.1551 39.3093 94.1547 39.3069L94.154 39.3051C94.154 39.3027 94.1537 39.3006 94.1533 39.2981V39.2974L94.1492 39.2666L94.1488 39.2652C94.1485 39.2631 94.1488 39.261 94.1485 39.2589C94.1485 39.2589 94.1478 39.2572 94.1478 39.2565C94.1474 39.2544 94.1478 39.2526 94.1474 39.2505C94.1474 39.2498 94.1471 39.2481 94.1471 39.2481C94.1467 39.246 94.1464 39.2439 94.146 39.2418V39.2397C94.146 39.2376 94.1453 39.2355 94.145 39.2334C94.145 39.2334 94.145 39.2316 94.1446 39.2309C94.1446 39.2288 94.1446 39.2267 94.1443 39.225C94.1443 39.2243 94.1443 39.2232 94.1443 39.2232C94.1436 39.2162 94.1422 39.2096 94.1415 39.2026C94.1415 39.2015 94.1419 39.2005 94.1415 39.1994L94.1412 39.1945C94.1408 39.1931 94.1405 39.1917 94.1405 39.1907L94.1401 39.1854C94.1401 39.1844 94.1398 39.183 94.1398 39.1816C94.1398 39.1802 94.1391 39.1788 94.1391 39.177L94.1387 39.1728C94.1384 39.1714 94.1384 39.1697 94.1384 39.1679C94.138 39.1669 94.1384 39.1658 94.138 39.1644C94.138 39.1627 94.1377 39.1609 94.1373 39.1592C94.1373 39.1581 94.1373 39.1571 94.137 39.1557C94.1366 39.1522 94.1363 39.1487 94.136 39.1452C94.136 39.1441 94.136 39.1434 94.136 39.142C94.1356 39.1406 94.136 39.1389 94.1356 39.1375C94.1356 39.1361 94.1356 39.135 94.1353 39.1336C94.1353 39.1319 94.1349 39.1301 94.1346 39.1287C94.1346 39.1273 94.1346 39.1259 94.1342 39.1245C94.1342 39.1231 94.1342 39.1214 94.1339 39.12C94.1339 39.1186 94.1342 39.1172 94.1339 39.1154C94.1339 39.114 94.1339 39.1126 94.1335 39.1109C94.1335 39.1095 94.1332 39.1084 94.1328 39.1067C94.1328 39.1053 94.1328 39.1035 94.1325 39.1021C94.1325 39.1007 94.1328 39.099 94.1325 39.0976C94.1325 39.0962 94.1325 39.0944 94.1325 39.0934C94.1325 39.0916 94.1321 39.0899 94.1321 39.0885C94.1321 39.086 94.1314 39.0839 94.1314 39.0815C94.1311 39.0797 94.1311 39.078 94.1311 39.0759C94.1307 39.0745 94.1311 39.0731 94.1311 39.0717C94.1311 39.0703 94.1307 39.0685 94.1307 39.0668C94.1307 39.0654 94.1304 39.0643 94.13 39.0629C94.13 39.0612 94.13 39.0594 94.1297 39.058C94.1297 39.0566 94.1297 39.0549 94.1297 39.0535C94.1293 39.0521 94.1293 39.0503 94.1293 39.0493C94.1293 39.0475 94.1297 39.0461 94.1293 39.0447C94.1293 39.043 94.1293 39.0412 94.1293 39.0398C94.129 39.0384 94.129 39.037 94.129 39.0356C94.129 39.0342 94.1283 39.0325 94.1283 39.0307C94.1283 39.0293 94.1283 39.0279 94.1283 39.0269C94.128 39.0244 94.128 39.0223 94.128 39.0206C94.128 39.0192 94.128 39.0181 94.128 39.0171C94.128 39.0143 94.128 39.0115 94.1276 39.009C94.1276 39.008 94.1276 39.0069 94.1276 39.0059C94.1276 39.0038 94.1273 39.002 94.1269 38.9999C94.1269 38.9989 94.1269 38.9975 94.1269 38.9964C94.1269 38.9947 94.1269 38.9926 94.1266 38.9912C94.1266 38.9898 94.1266 38.9884 94.1266 38.9873C94.1266 38.9856 94.1269 38.9835 94.1266 38.9817V38.9779C94.1266 38.9765 94.1266 38.9747 94.1266 38.9726C94.1262 38.9716 94.1262 38.9702 94.1262 38.9691C94.1262 38.967 94.1262 38.9649 94.1262 38.9628V38.9604C94.1259 38.9576 94.1255 38.9548 94.1255 38.952V38.9502C94.1255 38.9478 94.1255 38.945 94.1252 38.9422V38.939C94.1252 38.9369 94.1252 38.9348 94.1252 38.9331V38.9296V38.9236C94.1248 38.9226 94.1252 38.9212 94.1252 38.9201V38.9149V38.911C94.1252 38.9093 94.1252 38.9072 94.1252 38.9054V38.9019V38.8956V38.8928V38.8837V32.2617Z" fill="#C25F43"/>
<path d="M118.065 32.2617H116.862V38.8837C116.862 40.5301 118.193 41.8699 119.829 41.8699C120.035 41.8699 120.236 41.8489 120.43 41.8083C119.195 41.5514 118.238 40.5189 118.086 39.2407C118.084 39.225 118.082 39.2092 118.081 39.1928L118.081 39.1914C118.08 39.1889 118.08 39.1868 118.08 39.1844C118.08 39.1844 118.08 39.1833 118.08 39.1826C118.08 39.1805 118.079 39.1784 118.079 39.176L118.079 39.1742C118.079 39.1718 118.079 39.1697 118.078 39.1672V39.1665C118.077 39.156 118.076 39.1459 118.075 39.1357L118.075 39.134C118.075 39.1319 118.075 39.1298 118.075 39.1277C118.075 39.1266 118.074 39.1256 118.074 39.1249C118.074 39.1231 118.074 39.121 118.074 39.1193C118.074 39.1182 118.074 39.1172 118.074 39.1161C118.074 39.1144 118.073 39.1123 118.073 39.1105C118.073 39.1095 118.073 39.1084 118.073 39.1074C118.073 39.1056 118.073 39.1035 118.073 39.1018C118.073 39.1007 118.073 39.0997 118.072 39.0986C118.072 39.0965 118.072 39.0948 118.072 39.0934V39.0902L118.071 39.079V39.0762C118.071 39.0745 118.071 39.0727 118.071 39.0713C118.071 39.0696 118.071 39.0685 118.071 39.0671C118.071 39.0654 118.071 39.064 118.07 39.0626V39.058C118.07 39.0566 118.07 39.0549 118.07 39.0535C118.07 39.0517 118.069 39.0503 118.069 39.0493V39.0447C118.069 39.043 118.069 39.0416 118.069 39.0398C118.069 39.0384 118.069 39.037 118.069 39.0356V39.0311C118.068 39.0297 118.068 39.0279 118.068 39.0265C118.068 39.0251 118.068 39.0234 118.068 39.0216C118.068 39.0195 118.068 39.0171 118.068 39.0146V39.009C118.067 39.008 118.067 39.0066 118.067 39.0052V39.0003C118.067 38.9989 118.067 38.9975 118.067 38.9961V38.9912C118.067 38.9898 118.067 38.9884 118.067 38.987V38.9821C118.067 38.9807 118.066 38.9793 118.066 38.9779V38.973V38.9688C118.066 38.967 118.066 38.9653 118.066 38.9632V38.96C118.066 38.9579 118.066 38.9555 118.066 38.953V38.9492V38.9422C118.066 38.9411 118.066 38.9397 118.065 38.9387V38.9331V38.9296V38.9236V38.9201V38.9149C118.065 38.9135 118.065 38.9124 118.065 38.911V38.9054V38.9019V38.8956V38.8928V38.8837V32.2617Z" fill="#C25F43"/>
<path d="M122.068 68.9144C122.068 70.0127 121.184 70.9028 120.093 70.9028C119.002 70.9028 118.118 70.0127 118.118 68.9144C118.118 67.8165 119.002 66.9268 120.093 66.9268C121.184 66.9268 122.068 67.8165 122.068 68.9144Z" fill="#603AB4"/>
<path d="M97.0917 24.5C95.6286 24.5 94.4385 25.6981 94.4385 27.1709V36.2411C94.4385 37.7139 95.6286 38.9123 97.0917 38.9123C98.5548 38.9123 99.745 37.7139 99.745 36.2411V27.1709C99.745 25.6981 98.5548 24.5 97.0917 24.5Z" fill="#EAEAEA"/>
<path d="M121.107 24.5908C119.644 24.5908 118.454 25.7892 118.454 27.262V36.3323C118.454 37.8051 119.644 39.0031 121.107 39.0031C122.57 39.0031 123.761 37.8051 123.761 36.3323V27.262C123.761 25.7892 122.57 24.5908 121.107 24.5908Z" fill="#EAEAEA"/>
<path d="M122.177 29.3434C121.847 29.3434 121.576 29.0711 121.576 28.7383V27.3005C121.576 26.9673 121.847 26.6953 122.177 26.6953C122.508 26.6953 122.778 26.9673 122.778 27.3005V28.7383C122.778 29.0711 122.508 29.3434 122.177 29.3434Z" fill="white"/>
<path d="M122.177 35.8117C121.847 35.8117 121.576 35.5397 121.576 35.2069V31.486C121.576 31.1532 121.847 30.8809 122.177 30.8809C122.508 30.8809 122.778 31.1532 122.778 31.486V35.2069C122.778 35.5397 122.508 35.8117 122.177 35.8117Z" fill="white"/>
<path d="M98.1324 29.3434C97.8018 29.3434 97.5312 29.0711 97.5312 28.7383V27.3005C97.5312 26.9673 97.8018 26.6953 98.1324 26.6953C98.4631 26.6953 98.7336 26.9673 98.7336 27.3005V28.7383C98.7336 29.0711 98.4631 29.3434 98.1324 29.3434Z" fill="white"/>
<path d="M98.1324 35.8117C97.8018 35.8117 97.5312 35.5397 97.5312 35.2069V31.486C97.5312 31.1532 97.8018 30.8809 98.1324 30.8809C98.4631 30.8809 98.7336 31.1532 98.7336 31.486V35.2069C98.7336 35.5397 98.4631 35.8117 98.1324 35.8117Z" fill="white"/>
</g>
<g opacity="0.25">
<path d="M127.478 32.2612H123.998V39.0351C123.998 40.6819 122.667 42.021 121.031 42.021C119.395 42.021 118.065 40.6819 118.065 39.0351V32.2612H100.059V39.0351C100.059 40.6819 98.728 42.021 97.0921 42.021C95.4562 42.021 94.1252 40.6819 94.1252 39.0351V32.2612H90.6455C87.8156 32.2612 85.5 34.5922 85.5 37.4412V74.5181C85.5 77.3671 87.8156 79.6981 90.6455 79.6981H127.478C130.308 79.6981 132.623 77.3671 132.623 74.5181V37.4412C132.623 34.5922 130.308 32.2612 127.478 32.2612Z" fill="#222222"/>
</g>
<mask id="mask8_3757_50868" style="mask-type:luminance" maskUnits="userSpaceOnUse" x="0" y="-21" width="226" height="112">
<path d="M0 -21H226V91H0V-21Z" fill="white"/>
</mask>
<g mask="url(#mask8_3757_50868)">
<path d="M127.478 32.2612H123.998V39.0351C123.998 40.6819 122.667 42.021 121.031 42.021C119.395 42.021 118.065 40.6819 118.065 39.0351V32.2612H100.059V39.0351C100.059 40.6819 98.728 42.021 97.0921 42.021C95.4562 42.021 94.1252 40.6819 94.1252 39.0351V32.2612H90.6455C87.8156 32.2612 85.5 34.5922 85.5 37.4412V74.5181C85.5 77.3671 87.8156 79.6981 90.6455 79.6981H127.478C130.308 79.6981 132.623 77.3671 132.623 74.5181V37.4412C132.623 34.5922 130.308 32.2612 127.478 32.2612Z" fill="white"/>
<path d="M127.478 32.2612H123.998V38.8836C123.998 40.53 122.667 41.8698 121.031 41.8698C119.395 41.8698 118.065 40.53 118.065 38.8836V32.2612H100.059V38.8836C100.059 40.53 98.728 41.8698 97.0921 41.8698C95.4562 41.8698 94.1252 40.53 94.1252 38.8836V32.2612H90.6455C87.8156 32.2612 85.5 34.5926 85.5 37.4416V45.0474H132.623V37.4416C132.623 34.5926 130.308 32.2612 127.478 32.2612Z" fill="#603AB4"/>
<path d="M94.1252 32.2617H92.9229V38.8837C92.9229 40.5301 94.2531 41.8699 95.889 41.8699C96.0952 41.8699 96.2958 41.8489 96.4902 41.8083C95.2997 41.5605 94.3679 40.5928 94.1655 39.379C94.1652 39.3762 94.1648 39.3737 94.1645 39.3709L94.1641 39.3706C94.1617 39.3548 94.1592 39.3391 94.1568 39.3233V39.3219C94.1565 39.3198 94.1565 39.3174 94.1561 39.3149L94.1554 39.3135C94.1551 39.3114 94.1551 39.3093 94.1547 39.3069L94.154 39.3051C94.154 39.3027 94.1537 39.3006 94.1533 39.2981V39.2974L94.1492 39.2666L94.1488 39.2652C94.1485 39.2631 94.1488 39.261 94.1485 39.2589C94.1485 39.2589 94.1478 39.2572 94.1478 39.2565C94.1474 39.2544 94.1478 39.2526 94.1474 39.2505C94.1474 39.2498 94.1471 39.2481 94.1471 39.2481C94.1467 39.246 94.1464 39.2439 94.146 39.2418V39.2397C94.146 39.2376 94.1453 39.2355 94.145 39.2334C94.145 39.2334 94.145 39.2316 94.1446 39.2309C94.1446 39.2288 94.1446 39.2267 94.1443 39.225C94.1443 39.2243 94.1443 39.2232 94.1443 39.2232C94.1436 39.2162 94.1422 39.2096 94.1415 39.2026C94.1415 39.2015 94.1419 39.2005 94.1415 39.1994L94.1412 39.1945C94.1408 39.1931 94.1405 39.1917 94.1405 39.1907L94.1401 39.1854C94.1401 39.1844 94.1398 39.183 94.1398 39.1816C94.1398 39.1802 94.1391 39.1788 94.1391 39.177L94.1387 39.1728C94.1384 39.1714 94.1384 39.1697 94.1384 39.1679C94.138 39.1669 94.1384 39.1658 94.138 39.1644C94.138 39.1627 94.1377 39.1609 94.1373 39.1592C94.1373 39.1581 94.1373 39.1571 94.137 39.1557C94.1366 39.1522 94.1363 39.1487 94.136 39.1452C94.136 39.1441 94.136 39.1434 94.136 39.142C94.1356 39.1406 94.136 39.1389 94.1356 39.1375C94.1356 39.1361 94.1356 39.135 94.1353 39.1336C94.1353 39.1319 94.1349 39.1301 94.1346 39.1287C94.1346 39.1273 94.1346 39.1259 94.1342 39.1245C94.1342 39.1231 94.1342 39.1214 94.1339 39.12C94.1339 39.1186 94.1342 39.1172 94.1339 39.1154C94.1339 39.114 94.1339 39.1126 94.1335 39.1109C94.1335 39.1095 94.1332 39.1084 94.1328 39.1067C94.1328 39.1053 94.1328 39.1035 94.1325 39.1021C94.1325 39.1007 94.1328 39.099 94.1325 39.0976C94.1325 39.0962 94.1325 39.0944 94.1325 39.0934C94.1325 39.0916 94.1321 39.0899 94.1321 39.0885C94.1321 39.086 94.1314 39.0839 94.1314 39.0815C94.1311 39.0797 94.1311 39.078 94.1311 39.0759C94.1307 39.0745 94.1311 39.0731 94.1311 39.0717C94.1311 39.0703 94.1307 39.0685 94.1307 39.0668C94.1307 39.0654 94.1304 39.0643 94.13 39.0629C94.13 39.0612 94.13 39.0594 94.1297 39.058C94.1297 39.0566 94.1297 39.0549 94.1297 39.0535C94.1293 39.0521 94.1293 39.0503 94.1293 39.0493C94.1293 39.0475 94.1297 39.0461 94.1293 39.0447C94.1293 39.043 94.1293 39.0412 94.1293 39.0398C94.129 39.0384 94.129 39.037 94.129 39.0356C94.129 39.0342 94.1283 39.0325 94.1283 39.0307C94.1283 39.0293 94.1283 39.0279 94.1283 39.0269C94.128 39.0244 94.128 39.0223 94.128 39.0206C94.128 39.0192 94.128 39.0181 94.128 39.0171C94.128 39.0143 94.128 39.0115 94.1276 39.009C94.1276 39.008 94.1276 39.0069 94.1276 39.0059C94.1276 39.0038 94.1273 39.002 94.1269 38.9999C94.1269 38.9989 94.1269 38.9975 94.1269 38.9964C94.1269 38.9947 94.1269 38.9926 94.1266 38.9912C94.1266 38.9898 94.1266 38.9884 94.1266 38.9873C94.1266 38.9856 94.1269 38.9835 94.1266 38.9817V38.9779C94.1266 38.9765 94.1266 38.9747 94.1266 38.9726C94.1262 38.9716 94.1262 38.9702 94.1262 38.9691C94.1262 38.967 94.1262 38.9649 94.1262 38.9628V38.9604C94.1259 38.9576 94.1255 38.9548 94.1255 38.952V38.9502C94.1255 38.9478 94.1255 38.945 94.1252 38.9422V38.939C94.1252 38.9369 94.1252 38.9348 94.1252 38.9331V38.9296V38.9236C94.1248 38.9226 94.1252 38.9212 94.1252 38.9201V38.9149V38.911C94.1252 38.9093 94.1252 38.9072 94.1252 38.9054V38.9019V38.8956V38.8928V38.8837V32.2617Z" fill="#C25F43"/>
<path d="M118.065 32.2617H116.862V38.8837C116.862 40.5301 118.193 41.8699 119.829 41.8699C120.035 41.8699 120.236 41.8489 120.43 41.8083C119.195 41.5514 118.238 40.5189 118.086 39.2407C118.084 39.225 118.082 39.2092 118.081 39.1928L118.081 39.1914C118.08 39.1889 118.08 39.1868 118.08 39.1844C118.08 39.1844 118.08 39.1833 118.08 39.1826C118.08 39.1805 118.079 39.1784 118.079 39.176L118.079 39.1742C118.079 39.1718 118.079 39.1697 118.078 39.1672V39.1665C118.077 39.156 118.076 39.1459 118.075 39.1357L118.075 39.134C118.075 39.1319 118.075 39.1298 118.075 39.1277C118.075 39.1266 118.074 39.1256 118.074 39.1249C118.074 39.1231 118.074 39.121 118.074 39.1193C118.074 39.1182 118.074 39.1172 118.074 39.1161C118.074 39.1144 118.073 39.1123 118.073 39.1105C118.073 39.1095 118.073 39.1084 118.073 39.1074C118.073 39.1056 118.073 39.1035 118.073 39.1018C118.073 39.1007 118.073 39.0997 118.072 39.0986C118.072 39.0965 118.072 39.0948 118.072 39.0934V39.0902L118.071 39.079V39.0762C118.071 39.0745 118.071 39.0727 118.071 39.0713C118.071 39.0696 118.071 39.0685 118.071 39.0671C118.071 39.0654 118.071 39.064 118.07 39.0626V39.058C118.07 39.0566 118.07 39.0549 118.07 39.0535C118.07 39.0517 118.069 39.0503 118.069 39.0493V39.0447C118.069 39.043 118.069 39.0416 118.069 39.0398C118.069 39.0384 118.069 39.037 118.069 39.0356V39.0311C118.068 39.0297 118.068 39.0279 118.068 39.0265C118.068 39.0251 118.068 39.0234 118.068 39.0216C118.068 39.0195 118.068 39.0171 118.068 39.0146V39.009C118.067 39.008 118.067 39.0066 118.067 39.0052V39.0003C118.067 38.9989 118.067 38.9975 118.067 38.9961V38.9912C118.067 38.9898 118.067 38.9884 118.067 38.987V38.9821C118.067 38.9807 118.066 38.9793 118.066 38.9779V38.973V38.9688C118.066 38.967 118.066 38.9653 118.066 38.9632V38.96C118.066 38.9579 118.066 38.9555 118.066 38.953V38.9492V38.9422C118.066 38.9411 118.066 38.9397 118.065 38.9387V38.9331V38.9296V38.9236V38.9201V38.9149C118.065 38.9135 118.065 38.9124 118.065 38.911V38.9054V38.9019V38.8956V38.8928V38.8837V32.2617Z" fill="#C25F43"/>
<path d="M100.006 55.1104C100.006 56.2084 99.1222 57.0981 98.0315 57.0981C96.9408 57.0981 96.0566 56.2084 96.0566 55.1104C96.0566 54.0121 96.9408 53.1221 98.0315 53.1221C99.1222 53.1221 100.006 54.0121 100.006 55.1104Z" fill="#603AB4"/>
<path d="M107.36 55.1104C107.36 56.2084 106.475 57.0981 105.384 57.0981C104.294 57.0981 103.409 56.2084 103.409 55.1104C103.409 54.0121 104.294 53.1221 105.384 53.1221C106.475 53.1221 107.36 54.0121 107.36 55.1104Z" fill="#603AB4"/>
<path d="M114.714 55.1104C114.714 56.2084 113.829 57.0981 112.739 57.0981C111.648 57.0981 110.764 56.2084 110.764 55.1104C110.764 54.0121 111.648 53.1221 112.739 53.1221C113.829 53.1221 114.714 54.0121 114.714 55.1104Z" fill="#603AB4"/>
<path d="M122.068 55.1104C122.068 56.2084 121.184 57.0981 120.093 57.0981C119.002 57.0981 118.118 56.2084 118.118 55.1104C118.118 54.0121 119.002 53.1221 120.093 53.1221C121.184 53.1221 122.068 54.0121 122.068 55.1104Z" fill="#603AB4"/>
<path d="M100.006 62.0128C100.006 63.1107 99.1222 64.0004 98.0315 64.0004C96.9408 64.0004 96.0566 63.1107 96.0566 62.0128C96.0566 60.9145 96.9408 60.0244 98.0315 60.0244C99.1222 60.0244 100.006 60.9145 100.006 62.0128Z" fill="#603AB4"/>
<path d="M107.36 62.0128C107.36 63.1107 106.475 64.0004 105.384 64.0004C104.294 64.0004 103.409 63.1107 103.409 62.0128C103.409 60.9145 104.294 60.0244 105.384 60.0244C106.475 60.0244 107.36 60.9145 107.36 62.0128Z" fill="#603AB4"/>
<path d="M114.714 62.0128C114.714 63.1107 113.829 64.0004 112.739 64.0004C111.648 64.0004 110.764 63.1107 110.764 62.0128C110.764 60.9145 111.648 60.0244 112.739 60.0244C113.829 60.0244 114.714 60.9145 114.714 62.0128Z" fill="#603AB4"/>
<path d="M122.068 62.0128C122.068 63.1107 121.184 64.0004 120.093 64.0004C119.002 64.0004 118.118 63.1107 118.118 62.0128C118.118 60.9145 119.002 60.0244 120.093 60.0244C121.184 60.0244 122.068 60.9145 122.068 62.0128Z" fill="#603AB4"/>
<path d="M100.006 68.9144C100.006 70.0127 99.1222 70.9028 98.0315 70.9028C96.9408 70.9028 96.0566 70.0127 96.0566 68.9144C96.0566 67.8165 96.9408 66.9268 98.0315 66.9268C99.1222 66.9268 100.006 67.8165 100.006 68.9144Z" fill="#603AB4"/>
<path d="M107.36 68.9144C107.36 70.0127 106.475 70.9028 105.384 70.9028C104.294 70.9028 103.409 70.0127 103.409 68.9144C103.409 67.8165 104.294 66.9268 105.384 66.9268C106.475 66.9268 107.36 67.8165 107.36 68.9144Z" fill="#603AB4"/>
<path d="M114.714 68.9144C114.714 70.0127 113.829 70.9028 112.739 70.9028C111.648 70.9028 110.764 70.0127 110.764 68.9144C110.764 67.8165 111.648 66.9268 112.739 66.9268C113.829 66.9268 114.714 67.8165 114.714 68.9144Z" fill="#603AB4"/>
<path d="M122.068 68.9144C122.068 70.0127 121.184 70.9028 120.093 70.9028C119.002 70.9028 118.118 70.0127 118.118 68.9144C118.118 67.8165 119.002 66.9268 120.093 66.9268C121.184 66.9268 122.068 67.8165 122.068 68.9144Z" fill="#603AB4"/>
</g>
</g>
</g>
</g>
</g>
<defs>
<clipPath id="clip0_3757_50868">
<rect width="226" height="112" fill="white"/>
</clipPath>
</defs>
</svg>
