<svg width="112" height="112" viewBox="0 0 112 112" fill="none" xmlns="http://www.w3.org/2000/svg">
<g clip-path="url(#clip0_3757_50725)">
<mask id="mask0_3757_50725" style="mask-type:luminance" maskUnits="userSpaceOnUse" x="0" y="0" width="112" height="112">
<path d="M112 0H0V112H112V0Z" fill="white"/>
</mask>
<g mask="url(#mask0_3757_50725)">
<path d="M57.7051 29.9312C62.6033 29.9312 66.5802 33.9081 66.5802 38.8062C66.5802 43.7044 62.6033 47.6813 57.7051 47.6813C52.807 47.6813 48.8301 43.7044 48.8301 38.8062C48.8301 33.9081 52.807 29.9312 57.7051 29.9312Z" fill="#D28A12" fill-opacity="0.593859"/>
<path d="M75.6937 64.522C78.8285 64.522 81.3738 66.2188 81.3738 68.3086V92.2909C81.3738 94.3808 78.8285 96.0776 75.6937 96.0776H39.7201C36.5853 96.0776 34.04 94.3808 34.04 92.2909V68.3086C34.04 66.2188 36.5853 64.522 39.7201 64.522H75.6937ZM78.6237 75.1215C81.6104 75.1215 84.0386 76.816 84.0386 78.9082V82.2531C84.0386 84.342 81.6104 86.0397 78.6237 86.0397H57.2478C54.261 86.0397 51.8328 84.342 51.8328 82.2531V78.9082C51.8328 76.816 54.261 75.1215 57.2478 75.1215H78.6237ZM57.6264 77.343C59.302 77.343 60.6653 78.722 60.6653 80.4228C60.6653 82.1237 59.302 83.5027 57.6264 83.5027C55.9508 83.5027 54.5923 82.1237 54.5923 80.4228C54.5923 78.722 55.9508 77.343 57.6264 77.343Z" fill="#350793"/>
<path d="M78.6276 75.1206C81.6145 75.1206 84.0397 76.8174 84.0397 78.9073V82.2525C84.0397 84.3424 81.6145 86.0392 78.6276 86.0392H57.2481C54.2611 86.0392 51.8359 84.3424 51.8359 82.2525V78.9073C51.8359 76.8174 54.2611 75.1206 57.2481 75.1206H78.6276Z" fill="#D8D1E6"/>
<path d="M57.6272 77.3418C59.3036 77.3418 60.6647 78.7222 60.6647 80.4224C60.6647 82.1226 59.3036 83.503 57.6272 83.503C55.9509 83.503 54.5898 82.1226 54.5898 80.4224C54.5898 78.7222 55.9509 77.3418 57.6272 77.3418Z" fill="#311007"/>
</g>
</g>
<defs>
<clipPath id="clip0_3757_50725">
<rect width="112" height="112" fill="white"/>
</clipPath>
</defs>
</svg>
