<svg width="194" height="43" viewBox="0 0 194 43" fill="none" xmlns="http://www.w3.org/2000/svg">
<path d="M126 21.04V23.3H120.18V26.88H124.64V29.1H120.18V35H117.38V21.04H126ZM132.905 35.18C131.838 35.18 130.878 34.9467 130.025 34.48C129.172 34 128.498 33.3267 128.005 32.46C127.525 31.5933 127.285 30.5933 127.285 29.46C127.285 28.3267 127.532 27.3267 128.025 26.46C128.532 25.5933 129.218 24.9267 130.085 24.46C130.952 23.98 131.918 23.74 132.985 23.74C134.052 23.74 135.018 23.98 135.885 24.46C136.752 24.9267 137.432 25.5933 137.925 26.46C138.432 27.3267 138.685 28.3267 138.685 29.46C138.685 30.5933 138.425 31.5933 137.905 32.46C137.398 33.3267 136.705 34 135.825 34.48C134.958 34.9467 133.985 35.18 132.905 35.18ZM132.905 32.74C133.412 32.74 133.885 32.62 134.325 32.38C134.778 32.1267 135.138 31.7533 135.405 31.26C135.672 30.7667 135.805 30.1667 135.805 29.46C135.805 28.4067 135.525 27.6 134.965 27.04C134.418 26.4667 133.745 26.18 132.945 26.18C132.145 26.18 131.472 26.4667 130.925 27.04C130.392 27.6 130.125 28.4067 130.125 29.46C130.125 30.5133 130.385 31.3267 130.905 31.9C131.438 32.46 132.105 32.74 132.905 32.74ZM143.539 25.64C143.899 25.0533 144.366 24.5933 144.939 24.26C145.526 23.9267 146.192 23.76 146.939 23.76V26.7H146.199C145.319 26.7 144.652 26.9067 144.199 27.32C143.759 27.7333 143.539 28.4533 143.539 29.48V35H140.739V23.92H143.539V25.64ZM152.085 26.22V31.58C152.085 31.9533 152.171 32.2267 152.345 32.4C152.531 32.56 152.838 32.64 153.265 32.64H154.565V35H152.805C150.445 35 149.265 33.8533 149.265 31.56V26.22H147.945V23.92H149.265V21.18H152.085V23.92H154.565V26.22H152.085ZM167.039 23.92V35H164.219V33.6C163.859 34.08 163.385 34.46 162.799 34.74C162.225 35.0067 161.599 35.14 160.919 35.14C160.052 35.14 159.285 34.96 158.619 34.6C157.952 34.2267 157.425 33.6867 157.039 32.98C156.665 32.26 156.479 31.4067 156.479 30.42V23.92H159.279V30.02C159.279 30.9 159.499 31.58 159.939 32.06C160.379 32.5267 160.979 32.76 161.739 32.76C162.512 32.76 163.119 32.5267 163.559 32.06C163.999 31.58 164.219 30.9 164.219 30.02V23.92H167.039ZM175.941 23.76C177.261 23.76 178.328 24.18 179.141 25.02C179.955 25.8467 180.361 27.0067 180.361 28.5V35H177.561V28.88C177.561 28 177.341 27.3267 176.901 26.86C176.461 26.38 175.861 26.14 175.101 26.14C174.328 26.14 173.715 26.38 173.261 26.86C172.821 27.3267 172.601 28 172.601 28.88V35H169.801V23.92H172.601V25.3C172.975 24.82 173.448 24.4467 174.021 24.18C174.608 23.9 175.248 23.76 175.941 23.76ZM193.324 29.22C193.324 29.62 193.297 29.98 193.244 30.3H185.144C185.211 31.1 185.491 31.7267 185.984 32.18C186.477 32.6333 187.084 32.86 187.804 32.86C188.844 32.86 189.584 32.4133 190.024 31.52H193.044C192.724 32.5867 192.111 33.4667 191.204 34.16C190.297 34.84 189.184 35.18 187.864 35.18C186.797 35.18 185.837 34.9467 184.984 34.48C184.144 34 183.484 33.3267 183.004 32.46C182.537 31.5933 182.304 30.5933 182.304 29.46C182.304 28.3133 182.537 27.3067 183.004 26.44C183.471 25.5733 184.124 24.9067 184.964 24.44C185.804 23.9733 186.771 23.74 187.864 23.74C188.917 23.74 189.857 23.9667 190.684 24.42C191.524 24.8733 192.171 25.52 192.624 26.36C193.091 27.1867 193.324 28.14 193.324 29.22ZM190.424 28.42C190.411 27.7 190.151 27.1267 189.644 26.7C189.137 26.26 188.517 26.04 187.784 26.04C187.091 26.04 186.504 26.2533 186.024 26.68C185.557 27.0933 185.271 27.6733 185.164 28.42H190.424Z" fill="#F8F5FD"/>
<path opacity="0.5" d="M2.28572 26.4338C12.3995 33.5424 27.2224 23.3586 33.9753 16.8059C34.3043 16.4867 34.2316 15.9352 33.8644 15.6607C28.7291 11.8219 15.7259 -5.99048 12.9121 8.64755C9.9451 24.0828 -3.95098 21.2128 2.28572 26.4338Z" fill="#EB0343"/>
<path d="M33.9564 16.4103C33.1854 17.7282 30.5418 21.3779 28.9996 23C30.4081 19.744 32.5252 13.5862 34.126 13.0707C35.7189 12.5578 34.8078 14.955 33.9564 16.4103Z" fill="white"/>
<path opacity="0.7" d="M6.53499 35.246C17.9913 39.4655 29.2837 24.9782 33.9075 16.5101C34.1364 16.0909 33.9175 15.5536 33.4857 15.3945C27.329 13.1254 7.51672 -0.0349951 8.79413 15.3783C10.1407 31.6254 -0.758628 31.8069 6.53499 35.246Z" fill="url(#paint0_linear_3697_50604)"/>
<path fill-rule="evenodd" clip-rule="evenodd" d="M37.9729 15.211C38.0479 15.3842 37.9595 15.5819 37.7755 15.6525C31.5021 18.0584 29.7537 24.294 31.188 28.559C31.248 28.7373 31.1431 28.9277 30.9536 28.9841C30.7642 29.0406 30.562 28.9418 30.502 28.7634C28.9747 24.2221 30.8244 17.5868 37.504 15.0251C37.688 14.9545 37.898 15.0378 37.9729 15.211Z" fill="white"/>
<path d="M81.7428 22C83.2605 22 84.4899 22.4474 85.4309 23.3423C86.3719 24.2225 86.8424 25.4988 86.8424 27.1711V34.2787H84.7934V27.4572C84.7934 26.2543 84.4823 25.3374 83.86 24.7066C83.2377 24.0611 82.3878 23.7384 81.3102 23.7384C80.2175 23.7384 79.3448 24.0685 78.6921 24.7286C78.0547 25.3888 77.736 26.3496 77.736 27.6112V34.2787H75.6643V22.22H77.736V23.9364C78.1458 23.3203 78.6997 22.8435 79.3979 22.5061C80.1112 22.1687 80.8928 22 81.7428 22Z" fill="#F8F5FD"/>
<path d="M42.0991 34.4768C41.1429 34.4768 40.2854 34.3227 39.5265 34.0147C38.7677 33.6919 38.1682 33.2518 37.728 32.6944C37.2879 32.1222 37.045 31.4694 36.9995 30.7359H39.1395C39.2002 31.3374 39.4886 31.8289 40.0046 32.2103C40.5358 32.5917 41.2264 32.7824 42.0763 32.7824C42.8655 32.7824 43.4878 32.6137 43.9431 32.2763C44.3984 31.9389 44.6261 31.5134 44.6261 31C44.6261 30.4719 44.3833 30.0831 43.8976 29.8337C43.4119 29.5697 42.6606 29.313 41.6438 29.0636C40.7179 28.8289 39.9591 28.5941 39.3672 28.3594C38.7904 28.11 38.2896 27.7506 37.8646 27.2812C37.4548 26.7971 37.2499 26.1663 37.2499 25.3888C37.2499 24.7726 37.4397 24.2078 37.8191 23.6944C38.1985 23.1809 38.7373 22.7775 39.4355 22.4841C40.1336 22.176 40.9304 22.022 41.8259 22.022C43.207 22.022 44.3226 22.3594 45.1725 23.0342C46.0224 23.709 46.4777 24.6333 46.5384 25.8068H44.4667C44.4212 25.176 44.1556 24.6699 43.6699 24.2885C43.1994 23.9071 42.562 23.7164 41.7576 23.7164C41.0139 23.7164 40.422 23.8704 39.9819 24.1785C39.5417 24.4866 39.3216 24.89 39.3216 25.3888C39.3216 25.7848 39.4506 26.1149 39.7087 26.379C39.9819 26.6284 40.3158 26.8337 40.7104 26.9951C41.1201 27.1418 41.6817 27.3105 42.395 27.5012C43.2905 27.7359 44.019 27.9707 44.5806 28.2054C45.1421 28.4254 45.6202 28.7628 46.0148 29.2176C46.4246 29.6724 46.6371 30.2665 46.6523 31C46.6523 31.6601 46.4626 32.2543 46.0831 32.7824C45.7037 33.3105 45.1649 33.7286 44.4667 34.0367C43.7838 34.3301 42.9945 34.4768 42.0991 34.4768Z" fill="#F8F5FD"/>
<path fill-rule="evenodd" clip-rule="evenodd" d="M50.5102 24.4425C50.92 23.7531 51.5271 23.1809 52.3315 22.7262C53.1511 22.2567 54.0996 22.022 55.1772 22.022C56.2852 22.022 57.2869 22.2787 58.1823 22.7922C59.093 23.3056 59.8063 24.0318 60.3223 24.9707C60.8384 25.8949 61.0964 26.9731 61.0964 28.2054C61.0964 29.423 60.8384 30.5086 60.3223 31.4621C59.8063 32.4156 59.093 33.1565 58.1823 33.6846C57.2869 34.2127 56.2852 34.4768 55.1772 34.4768C54.1148 34.4768 53.1738 34.2494 52.3543 33.7946C51.5499 33.3252 50.9352 32.7457 50.5102 32.0562V40H48.4385V22.22H50.5102V24.4425ZM58.9791 28.2054C58.9791 27.2958 58.7894 26.5037 58.41 25.8289C58.0306 25.154 57.5145 24.6406 56.8619 24.2885C56.2245 23.9364 55.5187 23.7604 54.7447 23.7604C53.9858 23.7604 53.2801 23.9438 52.6274 24.3105C51.99 24.6626 51.474 25.1834 51.0794 25.8729C50.6999 26.5477 50.5102 27.3325 50.5102 28.2274C50.5102 29.1369 50.6999 29.9364 51.0794 30.6259C51.474 31.3007 51.99 31.8215 52.6274 32.1883C53.2801 32.5403 53.9858 32.7164 54.7447 32.7164C55.5187 32.7164 56.2245 32.5403 56.8619 32.1883C57.5145 31.8215 58.0306 31.3007 58.41 30.6259C58.7894 29.9364 58.9791 29.1296 58.9791 28.2054Z" fill="#F8F5FD"/>
<path d="M73.9997 28.9976C74.0452 28.5721 74.068 28.1687 74.068 27.7873C74.068 26.687 73.8176 25.7042 73.3167 24.8386C72.831 23.9584 72.1329 23.2689 71.2222 22.7702C70.3116 22.2714 69.2644 22.022 68.0805 22.022C66.8664 22.022 65.7888 22.2787 64.8478 22.7922C63.922 23.291 63.201 24.0098 62.685 24.9487C62.169 25.8875 61.911 26.9804 61.911 28.2274C61.911 29.4743 62.1766 30.5746 62.7078 31.5281C63.239 32.467 63.9675 33.1932 64.8933 33.7066C65.8343 34.22 66.8967 34.4768 68.0805 34.4768C69.5679 34.4768 70.8125 34.1174 71.8142 33.3985C72.8159 32.665 73.4837 31.7188 73.8176 30.5599H71.5865C71.3437 31.2347 70.9187 31.7775 70.3116 32.1883C69.7197 32.5844 68.976 32.7824 68.0805 32.7824C66.9878 32.7824 66.0544 32.4523 65.2803 31.7922C64.5215 31.1174 64.1041 30.1858 64.0282 28.9976H64.0383C63.9667 28.336 64.0029 27.6018 64.0745 27.1579C64.2105 26.1142 64.62 25.2898 65.3031 24.6846C66.0468 24.0391 66.9422 23.7164 67.9895 23.7164C68.718 23.7164 69.3782 23.8631 69.9701 24.1565C70.5772 24.4352 71.0553 24.8533 71.4044 25.4108C71.7535 25.9535 71.928 26.6064 71.928 27.3692H67.7001L66.0154 28.9976H73.9997Z" fill="#F8F5FD"/>
<path d="M90.7046 34.0147C91.4634 34.3227 92.3209 34.4768 93.2771 34.4768C94.1726 34.4768 94.9618 34.3301 95.6448 34.0367C96.3429 33.7286 96.8817 33.3105 97.2611 32.7824C97.6406 32.2543 97.8303 31.6601 97.8303 31C97.8151 30.2665 97.6026 29.6724 97.1928 29.2176C96.7982 28.7628 96.3202 28.4254 95.7586 28.2054C95.197 27.9707 94.4685 27.7359 93.5731 27.5012C92.8597 27.3105 92.2982 27.1418 91.8884 26.9951C91.4938 26.8337 91.1599 26.6284 90.8867 26.379C90.6287 26.1149 90.4997 25.7848 90.4997 25.3888C90.4997 24.89 90.7197 24.4866 91.1599 24.1785C91.6 23.8704 92.1919 23.7164 92.9356 23.7164C93.74 23.7164 94.3775 23.9071 94.848 24.2885C95.3336 24.6699 95.5992 25.176 95.6448 25.8068H97.7165C97.6558 24.6333 97.2004 23.709 96.3505 23.0342C95.5006 22.3594 94.3851 22.022 93.0039 22.022C92.1085 22.022 91.3117 22.176 90.6135 22.4841C89.9153 22.7775 89.3765 23.1809 88.9971 23.6944C88.6177 24.2078 88.428 24.7726 88.428 25.3888C88.428 26.1663 88.6329 26.7971 89.0426 27.2812C89.4676 27.7506 89.9685 28.11 90.5452 28.3594C91.1371 28.5941 91.896 28.8289 92.8218 29.0636C93.8387 29.313 94.5899 29.5697 95.0756 29.8337C95.5613 30.0831 95.8041 30.4719 95.8041 31C95.8041 31.5134 95.5765 31.9389 95.1212 32.2763C94.6658 32.6137 94.0436 32.7824 93.2543 32.7824C92.4044 32.7824 91.7139 32.5917 91.1826 32.2103C90.6666 31.8289 90.3783 31.3374 90.3175 30.7359H88.1775C88.2231 31.4694 88.4659 32.1222 88.906 32.6944C89.3462 33.2518 89.9457 33.6919 90.7046 34.0147Z" fill="#F8F5FD"/>
<path d="M111 27.7873C111 28.1687 110.977 28.5721 110.931 28.9976H102.941L104.626 27.3692H108.86C108.86 26.6064 108.685 25.9535 108.336 25.4108C107.987 24.8533 107.509 24.4352 106.902 24.1565C106.31 23.8631 105.65 23.7164 104.921 23.7164C103.874 23.7164 102.978 24.0391 102.235 24.6846C101.582 25.2625 101.18 26.0403 101.026 27.0179C100.938 27.4334 100.884 28.2606 100.964 28.9976H100.96C101.036 30.1858 101.453 31.1174 102.212 31.7922C102.986 32.4523 103.919 32.7824 105.012 32.7824C105.908 32.7824 106.651 32.5844 107.243 32.1883C107.85 31.7775 108.275 31.2347 108.518 30.5599H110.749C110.415 31.7188 109.747 32.665 108.746 33.3985C107.744 34.1174 106.499 34.4768 105.012 34.4768C103.828 34.4768 102.766 34.22 101.825 33.7066C100.899 33.1932 100.171 32.467 99.6393 31.5281C99.1081 30.5746 98.8425 29.4743 98.8425 28.2274C98.8425 26.9804 99.1005 25.8875 99.6165 24.9487C100.133 24.0098 100.853 23.291 101.779 22.7922C102.72 22.2787 103.798 22.022 105.012 22.022C106.196 22.022 107.243 22.2714 108.154 22.7702C109.064 23.2689 109.763 23.9584 110.248 24.8386C110.749 25.7042 111 26.687 111 27.7873Z" fill="#F8F5FD"/>
<defs>
<linearGradient id="paint0_linear_3697_50604" x1="19.1796" y1="8" x2="19.1796" y2="36" gradientUnits="userSpaceOnUse">
<stop stop-color="#EB0343"/>
<stop offset="1" stop-color="#C60DE9"/>
</linearGradient>
</defs>
</svg>
