<svg width="19" height="21" viewBox="0 0 19 21" fill="none" xmlns="http://www.w3.org/2000/svg">
<path d="M4.08333 9.20776C2.95556 9.20776 1.99306 8.76624 1.19583 7.88321C0.398611 7.00019 0 5.93409 0 4.68493C0 3.43577 0.398611 2.36968 1.19583 1.48665C1.99306 0.603623 2.95556 0.162109 4.08333 0.162109C5.21111 0.162109 6.17361 0.603623 6.97083 1.48665C7.76806 2.36968 8.16667 3.43577 8.16667 4.68493C8.16667 5.93409 7.76806 7.00019 6.97083 7.88321C6.17361 8.76624 5.21111 9.20776 4.08333 9.20776ZM4.08333 6.62328C4.56944 6.62328 4.98244 6.43462 5.32233 6.05729C5.663 5.68082 5.83333 5.22336 5.83333 4.68493C5.83333 4.1465 5.663 3.68905 5.32233 3.31258C4.98244 2.93525 4.56944 2.74658 4.08333 2.74658C3.59722 2.74658 3.18422 2.93525 2.84433 3.31258C2.50367 3.68905 2.33333 4.1465 2.33333 4.68493C2.33333 5.22336 2.50367 5.68082 2.84433 6.05729C3.18422 6.43462 3.59722 6.62328 4.08333 6.62328ZM14.5833 20.8379C13.4556 20.8379 12.4931 20.3964 11.6958 19.5133C10.8986 18.6303 10.5 17.5642 10.5 16.315C10.5 15.0659 10.8986 13.9998 11.6958 13.1168C12.4931 12.2337 13.4556 11.7922 14.5833 11.7922C15.7111 11.7922 16.6736 12.2337 17.4708 13.1168C18.2681 13.9998 18.6667 15.0659 18.6667 16.315C18.6667 17.5642 18.2681 18.6303 17.4708 19.5133C16.6736 20.3964 15.7111 20.8379 14.5833 20.8379ZM14.5833 18.2534C15.0694 18.2534 15.4824 18.0647 15.8223 17.6874C16.163 17.3109 16.3333 16.8535 16.3333 16.315C16.3333 15.7766 16.163 15.3192 15.8223 14.9427C15.4824 14.5654 15.0694 14.3767 14.5833 14.3767C14.0972 14.3767 13.6842 14.5654 13.3443 14.9427C13.0037 15.3192 12.8333 15.7766 12.8333 16.315C12.8333 16.8535 13.0037 17.3109 13.3443 17.6874C13.6842 18.0647 14.0972 18.2534 14.5833 18.2534ZM1.63333 20.8379L0 19.0287L17.0333 0.162109L18.6667 1.97124L1.63333 20.8379Z" fill="#D8D1E6"/>
</svg>
