<svg width="84" height="44" viewBox="0 0 84 44" fill="none" xmlns="http://www.w3.org/2000/svg">
<path d="M30.1847 18.8458C30.9872 19.7176 31.8043 20.5754 32.5859 21.4667C32.9109 21.8372 33.2639 21.9565 33.7344 21.9534C36.31 21.9339 38.8855 21.9443 41.4617 21.9443H42.1648V12.7176H37.2747V15.0465H38.561C38.5796 14.7332 38.5965 14.4576 38.6192 14.1175H40.7708C40.7708 14.9157 40.8209 15.6962 40.754 16.4658C40.7063 17.0201 40.3033 17.368 39.7654 17.3784C38.1098 17.4027 36.4507 17.3869 34.7358 17.3869V12.2771H32.7202C30.415 12.2771 30.0178 11.8573 30.0178 9.42199C30.0178 6.55327 30.0178 3.68496 30.0178 0.817056V0H53.9605C53.9738 0.191031 53.9983 0.378414 53.9983 0.565795C54.0006 3.19522 54.0006 5.82464 53.9983 8.45406C53.997 8.84046 53.8494 9.21059 53.5878 9.48337C53.3262 9.75614 52.9719 9.9093 52.6026 9.9093C51.6309 9.9093 50.6597 9.9093 49.4955 9.9093C50.1933 9.18898 50.7964 8.61284 51.336 7.97587C51.5454 7.72887 51.6088 7.34498 51.7303 7.0201C51.7518 6.96352 51.7338 6.89113 51.7338 6.82603C51.7384 4.30733 51.7448 4.30003 50.0061 2.59718C49.7969 2.40164 49.5302 2.28679 49.2501 2.27169C44.5554 2.25283 39.8608 2.2577 35.1661 2.2577C35.1248 2.2577 35.0829 2.2577 35.0416 2.2577C34.5345 2.28629 32.6574 4.17288 32.6521 4.69913C32.6388 6.32898 32.6481 7.95883 32.6521 9.58869C32.6521 9.67021 32.6894 9.75173 32.7179 9.86915H34.6369V5.53383C36.3076 5.53383 37.9045 5.47299 39.4944 5.55817C40.3894 5.60744 40.8133 6.25659 40.8273 7.20444C40.8511 8.80813 40.8511 8.80813 39.2961 8.79901C39.0914 8.79901 38.889 8.79901 38.6413 8.79901C38.6116 8.46866 38.5872 8.1961 38.5581 7.87366H37.2817V9.90869C37.5282 9.92147 37.7678 9.9458 38.0074 9.9458C40.5623 9.94905 43.1173 9.94905 45.6725 9.9458C46.742 9.9458 47.7183 10.2445 48.5802 10.9192C50.4806 12.4043 50.2625 15.5064 48.5342 16.408C48.4836 16.4342 48.4505 16.4956 48.3813 16.5717C48.4976 16.6477 48.5906 16.7219 48.6941 16.7791C50.1753 17.5974 50.8458 18.931 50.63 20.646C50.4474 22.1061 49.1425 23.5601 47.7125 23.8589C47.3259 23.9397 46.9327 23.9811 46.5384 23.9824C41.2622 23.9903 35.986 23.9793 30.7098 24C30.1725 24 29.9847 23.8704 30.001 23.2809C30.0405 21.85 30.0138 20.4172 30.0138 18.9857L30.1847 18.8458ZM44.4717 21.9565C45.1829 21.9565 45.8266 21.9954 46.4634 21.9473C47.3939 21.8761 48.1132 21.0615 48.1655 20.1003C48.2144 19.2029 47.6625 18.3688 46.7664 18.2338C46.0273 18.1218 45.2602 18.2113 44.4717 18.2113V21.9565ZM44.4362 14.1534C44.4362 15.8039 44.4362 15.8039 45.9028 15.7473C46.9403 15.7072 47.7788 14.9881 47.7823 14.1351C47.7858 13.2962 46.9996 12.6683 45.9121 12.6409C44.4362 12.6056 44.4362 12.6056 44.4362 14.1534Z" fill="#350793"/>
<path d="M53.9273 23.9593H49.9561C50.305 23.5943 50.5544 23.2773 50.8586 23.0376C51.5675 22.4798 51.789 21.7832 51.757 20.8511C51.6878 18.7723 51.7355 16.6892 51.7355 14.6073V13.7817H53.9273V23.9593Z" fill="#350793"/>
<path d="M53.9166 12.0407C53.9139 12.3459 53.7955 12.6375 53.5875 12.8514C53.3795 13.0654 53.0988 13.1843 52.8071 13.182C52.5157 13.171 52.2393 13.0443 52.034 12.8276C51.8288 12.611 51.7101 12.3207 51.7022 12.0158C51.6981 11.3593 52.2186 10.8416 52.8652 10.8598C53.4863 10.8793 53.93 11.3757 53.9166 12.0407Z" fill="#350793"/>
<path d="M0.71733 41V33.7273H3.4446C4.00331 33.7273 4.47206 33.8243 4.85085 34.0185C5.23201 34.2126 5.51965 34.4848 5.71378 34.8352C5.91027 35.1832 6.00852 35.5893 6.00852 36.0533C6.00852 36.5196 5.90909 36.9245 5.71023 37.2678C5.51373 37.6087 5.22372 37.8726 4.8402 38.0597C4.45668 38.2443 3.98556 38.3366 3.42685 38.3366H1.48438V37.2429H3.24929C3.57599 37.2429 3.84351 37.1979 4.05185 37.108C4.26018 37.0156 4.41406 36.8819 4.51349 36.7067C4.61529 36.5291 4.66619 36.3113 4.66619 36.0533C4.66619 35.7952 4.61529 35.575 4.51349 35.3928C4.4117 35.2081 4.25663 35.0684 4.0483 34.9737C3.83996 34.8767 3.57126 34.8281 3.24219 34.8281H2.0348V41H0.71733ZM4.47443 37.7045L6.27486 41H4.80469L3.03622 37.7045H4.47443ZM9.25107 41.1065C8.70419 41.1065 8.23189 40.9929 7.83416 40.7656C7.4388 40.536 7.13459 40.2116 6.92152 39.7926C6.70845 39.3712 6.60192 38.8752 6.60192 38.3047C6.60192 37.7436 6.70845 37.2512 6.92152 36.8274C7.13696 36.4013 7.43762 36.0698 7.82351 35.8331C8.2094 35.594 8.66276 35.4744 9.18359 35.4744C9.51977 35.4744 9.837 35.5289 10.1353 35.6378C10.436 35.7443 10.7011 35.91 10.9308 36.1349C11.1628 36.3598 11.3451 36.6463 11.4776 36.9943C11.6102 37.34 11.6765 37.7519 11.6765 38.2301V38.6243H7.20561V37.7578H10.4442C10.4419 37.5116 10.3886 37.2926 10.2844 37.1009C10.1803 36.9067 10.0347 36.754 9.84766 36.6428C9.663 36.5315 9.44756 36.4759 9.20135 36.4759C8.93857 36.4759 8.70774 36.5398 8.50888 36.6676C8.31001 36.7931 8.15495 36.9588 8.04368 37.1648C7.93478 37.3684 7.87914 37.5921 7.87678 37.8359V38.5923C7.87678 38.9096 7.93478 39.1818 8.05078 39.4091C8.16679 39.634 8.32895 39.8068 8.53729 39.9276C8.74562 40.0459 8.98946 40.1051 9.26882 40.1051C9.45585 40.1051 9.62512 40.0791 9.77663 40.027C9.92815 39.9725 10.0595 39.8932 10.1708 39.7891C10.2821 39.6849 10.3661 39.5559 10.4229 39.402L11.6232 39.5369C11.5475 39.8542 11.4031 40.1312 11.19 40.3679C10.9793 40.6023 10.7094 40.7846 10.3803 40.9148C10.0513 41.0426 9.67483 41.1065 9.25107 41.1065ZM14.8862 43.1591C14.4245 43.1591 14.028 43.0964 13.6966 42.9709C13.3651 42.8478 13.0988 42.6821 12.8975 42.4737C12.6963 42.2654 12.5566 42.0346 12.4785 41.7812L13.6362 41.5007C13.6883 41.6072 13.764 41.7126 13.8635 41.8168C13.9629 41.9233 14.0967 42.0109 14.2647 42.0795C14.4352 42.1506 14.6494 42.1861 14.9075 42.1861C15.2721 42.1861 15.5739 42.0973 15.813 41.9197C16.0521 41.7446 16.1717 41.4557 16.1717 41.0533V40.0199H16.1078C16.0415 40.1525 15.9444 40.2886 15.8166 40.4283C15.6911 40.5679 15.5242 40.6851 15.3159 40.7798C15.1099 40.8745 14.8507 40.9219 14.5382 40.9219C14.1191 40.9219 13.7392 40.8236 13.3983 40.6271C13.0597 40.4283 12.7898 40.1323 12.5886 39.7393C12.3897 39.344 12.2903 38.8492 12.2903 38.255C12.2903 37.656 12.3897 37.1506 12.5886 36.7386C12.7898 36.3243 13.0609 36.0107 13.4018 35.7976C13.7427 35.5821 14.1227 35.4744 14.5417 35.4744C14.8613 35.4744 15.1241 35.5289 15.3301 35.6378C15.5384 35.7443 15.7041 35.8733 15.8272 36.0249C15.9503 36.174 16.0439 36.3149 16.1078 36.4474H16.1788V35.5455H17.4466V41.0888C17.4466 41.5552 17.3353 41.9411 17.1127 42.2464C16.8902 42.5518 16.586 42.7803 16.2001 42.9318C15.8142 43.0833 15.3762 43.1591 14.8862 43.1591ZM14.8968 39.9134C15.1691 39.9134 15.4011 39.8471 15.5929 39.7145C15.7846 39.5819 15.9302 39.3913 16.0297 39.1428C16.1291 38.8942 16.1788 38.5959 16.1788 38.2479C16.1788 37.9046 16.1291 37.6039 16.0297 37.3459C15.9326 37.0878 15.7882 36.8878 15.5964 36.7457C15.407 36.6013 15.1738 36.5291 14.8968 36.5291C14.6104 36.5291 14.3713 36.6037 14.1795 36.7528C13.9877 36.902 13.8433 37.1068 13.7463 37.3672C13.6492 37.6252 13.6007 37.9188 13.6007 38.2479C13.6007 38.5817 13.6492 38.8741 13.7463 39.125C13.8457 39.3736 13.9913 39.5677 14.1831 39.7074C14.3772 39.8447 14.6151 39.9134 14.8968 39.9134ZM21.9906 38.706V35.5455H23.2761V41H22.0297V40.0305H21.9728C21.8497 40.3359 21.6473 40.5857 21.3656 40.7798C21.0862 40.974 20.7418 41.071 20.3322 41.071C19.9747 41.071 19.6587 40.9917 19.3841 40.8331C19.1118 40.6721 18.8987 40.4389 18.7449 40.1335C18.591 39.8258 18.514 39.4541 18.514 39.0185V35.5455H19.7995V38.8196C19.7995 39.1652 19.8942 39.4399 20.0836 39.6435C20.273 39.8471 20.5216 39.9489 20.8294 39.9489C21.0188 39.9489 21.2022 39.9027 21.3798 39.8104C21.5574 39.718 21.7029 39.5807 21.8166 39.3984C21.9326 39.2138 21.9906 38.983 21.9906 38.706ZM25.6335 33.7273V41H24.348V33.7273H25.6335ZM28.275 41.1101C27.9294 41.1101 27.6181 41.0485 27.3411 40.9254C27.0665 40.8 26.8487 40.6153 26.6877 40.3714C26.5291 40.1276 26.4498 39.8269 26.4498 39.4695C26.4498 39.1617 26.5066 38.9072 26.6202 38.706C26.7338 38.5047 26.8889 38.3438 27.0854 38.223C27.2819 38.1023 27.5033 38.0111 27.7495 37.9496C27.998 37.8857 28.2549 37.8395 28.5201 37.8111C28.8397 37.7779 29.0989 37.7483 29.2978 37.7223C29.4966 37.6939 29.641 37.6513 29.731 37.5945C29.8233 37.5353 29.8695 37.4441 29.8695 37.321V37.2997C29.8695 37.0322 29.7902 36.825 29.6316 36.6783C29.473 36.5315 29.2445 36.4581 28.9462 36.4581C28.6313 36.4581 28.3816 36.5268 28.1969 36.6641C28.0146 36.8014 27.8915 36.9635 27.8276 37.1506L26.6273 36.9801C26.722 36.6487 26.8783 36.3717 27.0961 36.1491C27.3139 35.9242 27.5802 35.7562 27.8951 35.6449C28.2099 35.5312 28.5579 35.4744 28.9391 35.4744C29.2019 35.4744 29.4635 35.5052 29.7239 35.5668C29.9843 35.6283 30.2222 35.7301 30.4377 35.8722C30.6531 36.0118 30.8259 36.2024 30.9561 36.4439C31.0887 36.6854 31.155 36.9872 31.155 37.3494V41H29.9192V40.2507H29.8766C29.7985 40.4022 29.6884 40.5443 29.5463 40.6768C29.4067 40.8071 29.2303 40.9124 29.0172 40.9929C28.8065 41.071 28.5591 41.1101 28.275 41.1101ZM28.6088 40.1655C28.8669 40.1655 29.0906 40.1146 29.28 40.0128C29.4694 39.9086 29.615 39.7713 29.7168 39.6009C29.821 39.4304 29.873 39.2446 29.873 39.0433V38.4006C29.8328 38.4337 29.7641 38.4645 29.6671 38.4929C29.5724 38.5213 29.4658 38.5462 29.3475 38.5675C29.2291 38.5888 29.1119 38.6077 28.9959 38.6243C28.8799 38.6409 28.7793 38.6551 28.6941 38.6669C28.5023 38.6929 28.3307 38.7356 28.1792 38.7947C28.0276 38.8539 27.9081 38.9368 27.8205 39.0433C27.7329 39.1475 27.6891 39.2824 27.6891 39.4482C27.6891 39.6849 27.7755 39.8636 27.9483 39.9844C28.1212 40.1051 28.3413 40.1655 28.6088 40.1655ZM34.9213 35.5455V36.5398H31.7857V35.5455H34.9213ZM32.5598 34.2386H33.8453V39.3594C33.8453 39.5322 33.8714 39.6648 33.9235 39.7571C33.9779 39.8471 34.0489 39.9086 34.1365 39.9418C34.2241 39.9749 34.3212 39.9915 34.4277 39.9915C34.5082 39.9915 34.5816 39.9856 34.6479 39.9737C34.7166 39.9619 34.7686 39.9512 34.8042 39.9418L35.0208 40.9467C34.9521 40.9704 34.8539 40.9964 34.726 41.0249C34.6006 41.0533 34.4467 41.0698 34.2644 41.0746C33.9424 41.084 33.6524 41.0355 33.3944 40.929C33.1363 40.8201 32.9315 40.652 32.78 40.4247C32.6309 40.1974 32.5575 39.9134 32.5598 39.5724V34.2386ZM38.1026 41.1065C37.5558 41.1065 37.0835 40.9929 36.6857 40.7656C36.2904 40.536 35.9862 40.2116 35.7731 39.7926C35.56 39.3712 35.4535 38.8752 35.4535 38.3047C35.4535 37.7436 35.56 37.2512 35.7731 36.8274C35.9885 36.4013 36.2892 36.0698 36.6751 35.8331C37.061 35.594 37.5143 35.4744 38.0352 35.4744C38.3713 35.4744 38.6886 35.5289 38.9869 35.6378C39.2875 35.7443 39.5527 35.91 39.7823 36.1349C40.0143 36.3598 40.1966 36.6463 40.3292 36.9943C40.4618 37.34 40.5281 37.7519 40.5281 38.2301V38.6243H36.0572V37.7578H39.2958C39.2934 37.5116 39.2402 37.2926 39.136 37.1009C39.0318 36.9067 38.8862 36.754 38.6992 36.6428C38.5146 36.5315 38.2991 36.4759 38.0529 36.4759C37.7901 36.4759 37.5593 36.5398 37.3604 36.6676C37.1616 36.7931 37.0065 36.9588 36.8952 37.1648C36.7863 37.3684 36.7307 37.5921 36.7283 37.8359V38.5923C36.7283 38.9096 36.7863 39.1818 36.9023 39.4091C37.0183 39.634 37.1805 39.8068 37.3888 39.9276C37.5972 40.0459 37.841 40.1051 38.1204 40.1051C38.3074 40.1051 38.4767 40.0791 38.6282 40.027C38.7797 39.9725 38.9111 39.8932 39.0224 39.7891C39.1336 39.6849 39.2177 39.5559 39.2745 39.402L40.4748 39.5369C40.399 39.8542 40.2546 40.1312 40.0415 40.3679C39.8308 40.6023 39.561 40.7846 39.2319 40.9148C38.9028 41.0426 38.5264 41.1065 38.1026 41.1065ZM43.3897 41.0959C42.9612 41.0959 42.5777 40.9858 42.2392 40.7656C41.9006 40.5455 41.6331 40.2259 41.4366 39.8068C41.2401 39.3878 41.1419 38.8788 41.1419 38.2798C41.1419 37.6738 41.2413 37.1624 41.4402 36.7457C41.6414 36.3267 41.9125 36.0107 42.2534 35.7976C42.5943 35.5821 42.9743 35.4744 43.3933 35.4744C43.7129 35.4744 43.9757 35.5289 44.1816 35.6378C44.3876 35.7443 44.551 35.8733 44.6717 36.0249C44.7924 36.174 44.8859 36.3149 44.9522 36.4474H45.0055V33.7273H46.2946V41H45.0304V40.1406H44.9522C44.8859 40.2732 44.7901 40.4141 44.6646 40.5632C44.5391 40.71 44.3734 40.8355 44.1674 40.9396C43.9615 41.0438 43.7022 41.0959 43.3897 41.0959ZM43.7484 40.0412C44.0207 40.0412 44.2527 39.9678 44.4444 39.821C44.6362 39.6719 44.7818 39.4647 44.8812 39.1996C44.9806 38.9344 45.0304 38.6255 45.0304 38.2727C45.0304 37.92 44.9806 37.6134 44.8812 37.353C44.7842 37.0926 44.6397 36.8902 44.448 36.7457C44.2586 36.6013 44.0254 36.5291 43.7484 36.5291C43.4619 36.5291 43.2228 36.6037 43.0311 36.7528C42.8393 36.902 42.6949 37.108 42.5978 37.3707C42.5008 37.6335 42.4522 37.9342 42.4522 38.2727C42.4522 38.6136 42.5008 38.9179 42.5978 39.1854C42.6973 39.4505 42.8429 39.66 43.0346 39.8139C43.2288 39.9654 43.4667 40.0412 43.7484 40.0412ZM49.7017 41V33.7273H50.9872V36.4474H51.0405C51.1068 36.3149 51.2003 36.174 51.321 36.0249C51.4418 35.8733 51.6051 35.7443 51.8111 35.6378C52.017 35.5289 52.2798 35.4744 52.5994 35.4744C53.0208 35.4744 53.4008 35.5821 53.7393 35.7976C54.0803 36.0107 54.3501 36.3267 54.549 36.7457C54.7502 37.1624 54.8509 37.6738 54.8509 38.2798C54.8509 38.8788 54.7526 39.3878 54.5561 39.8068C54.3596 40.2259 54.0921 40.5455 53.7536 40.7656C53.415 40.9858 53.0315 41.0959 52.603 41.0959C52.2905 41.0959 52.0313 41.0438 51.8253 40.9396C51.6193 40.8355 51.4536 40.71 51.3281 40.5632C51.205 40.4141 51.1091 40.2732 51.0405 40.1406H50.9659V41H49.7017ZM50.9624 38.2727C50.9624 38.6255 51.0121 38.9344 51.1115 39.1996C51.2133 39.4647 51.3589 39.6719 51.5483 39.821C51.7401 39.9678 51.9721 40.0412 52.2443 40.0412C52.5284 40.0412 52.7663 39.9654 52.9581 39.8139C53.1499 39.66 53.2943 39.4505 53.3913 39.1854C53.4908 38.9179 53.5405 38.6136 53.5405 38.2727C53.5405 37.9342 53.492 37.6335 53.3949 37.3707C53.2978 37.108 53.1534 36.902 52.9616 36.7528C52.7699 36.6037 52.5308 36.5291 52.2443 36.5291C51.9697 36.5291 51.7365 36.6013 51.5447 36.7457C51.353 36.8902 51.2074 37.0926 51.108 37.353C51.0109 37.6134 50.9624 37.92 50.9624 38.2727ZM56.3072 43.0455C56.132 43.0455 55.9698 43.0313 55.8207 43.0028C55.6739 42.9768 55.5567 42.946 55.4691 42.9105L55.7674 41.9091C55.9544 41.9635 56.1213 41.9896 56.2681 41.9872C56.4149 41.9848 56.5439 41.9387 56.6552 41.8487C56.7688 41.7611 56.8647 41.6143 56.9428 41.4084L57.0529 41.1136L55.0749 35.5455H56.4386L57.6957 39.6648H57.7525L59.0131 35.5455H60.3803L58.1964 41.6605C58.0946 41.9493 57.9596 42.1967 57.7915 42.4027C57.6235 42.611 57.4175 42.7696 57.1737 42.8786C56.9322 42.9898 56.6433 43.0455 56.3072 43.0455ZM67.2596 35.7266C67.2264 35.4164 67.0868 35.175 66.8406 35.0021C66.5967 34.8293 66.2795 34.7429 65.8888 34.7429C65.6142 34.7429 65.3787 34.7843 65.1822 34.8672C64.9857 34.95 64.8353 35.0625 64.7312 35.2045C64.627 35.3466 64.5737 35.5088 64.5714 35.6911C64.5714 35.8426 64.6057 35.974 64.6744 36.0852C64.7454 36.1965 64.8413 36.2912 64.962 36.3693C65.0827 36.4451 65.2165 36.509 65.3633 36.5611C65.5101 36.6132 65.658 36.657 65.8072 36.6925L66.489 36.8629C66.7636 36.9268 67.0276 37.0133 67.2809 37.1222C67.5366 37.2311 67.765 37.3684 67.9663 37.5341C68.1699 37.6998 68.3308 37.8999 68.4492 38.1342C68.5676 38.3686 68.6268 38.6432 68.6268 38.9581C68.6268 39.3842 68.5179 39.7595 68.3001 40.0838C68.0823 40.4058 67.7674 40.6579 67.3555 40.8402C66.9459 41.0201 66.4499 41.1101 65.8675 41.1101C65.3017 41.1101 64.8105 41.0225 64.3938 40.8473C63.9795 40.6721 63.6552 40.4164 63.4208 40.0803C63.1888 39.7441 63.0633 39.3345 63.0444 38.8516H64.3406C64.3595 39.1049 64.4376 39.3156 64.5749 39.4837C64.7122 39.6518 64.891 39.7772 65.1112 39.8601C65.3337 39.9429 65.5823 39.9844 65.8569 39.9844C66.1433 39.9844 66.3943 39.9418 66.6097 39.8565C66.8275 39.7689 66.998 39.6482 67.1211 39.4943C67.2442 39.3381 67.3069 39.1558 67.3093 38.9474C67.3069 38.758 67.2513 38.6018 67.1424 38.4787C67.0335 38.3532 66.8808 38.2491 66.6843 38.1662C66.4902 38.081 66.2629 38.0052 66.0025 37.9389L65.1751 37.7259C64.5761 37.572 64.1026 37.3388 63.7546 37.0263C63.409 36.7114 63.2362 36.2936 63.2362 35.7727C63.2362 35.3442 63.3522 34.969 63.5842 34.647C63.8185 34.325 64.137 34.0753 64.5394 33.8977C64.9419 33.7178 65.3976 33.6278 65.9066 33.6278C66.4227 33.6278 66.8749 33.7178 67.2631 33.8977C67.6538 34.0753 67.9603 34.3227 68.1829 34.6399C68.4054 34.9548 68.5202 35.317 68.5273 35.7266H67.2596ZM69.5513 41V33.7273H74.2814V34.8317H70.8688V36.8061H74.0364V37.9105H70.8688V39.8956H74.3098V41H69.5513ZM75.3755 41V33.7273H78.1596C78.6852 33.7273 79.122 33.8101 79.47 33.9759C79.8204 34.1392 80.082 34.3629 80.2548 34.647C80.43 34.9311 80.5176 35.2531 80.5176 35.6129C80.5176 35.9089 80.4608 36.1622 80.3471 36.3729C80.2335 36.5812 80.0808 36.7505 79.889 36.8807C79.6973 37.0109 79.483 37.1044 79.2463 37.1612V37.2322C79.5043 37.2464 79.7517 37.3258 79.9885 37.4702C80.2276 37.6122 80.4229 37.8134 80.5744 38.0739C80.7259 38.3343 80.8017 38.6491 80.8017 39.0185C80.8017 39.3949 80.7105 39.7334 80.5282 40.0341C80.3459 40.3324 80.0713 40.5679 79.7044 40.7408C79.3374 40.9136 78.8758 41 78.3194 41H75.3755ZM76.693 39.8991H78.1099C78.5881 39.8991 78.9326 39.808 79.1433 39.6257C79.3564 39.4411 79.4629 39.2043 79.4629 38.9155C79.4629 38.7 79.4096 38.5059 79.3031 38.3331C79.1966 38.1579 79.045 38.0206 78.8485 37.9212C78.652 37.8194 78.4177 37.7685 78.1454 37.7685H76.693V39.8991ZM76.693 36.8203H77.9963C78.2235 36.8203 78.4283 36.7789 78.6106 36.696C78.7929 36.6108 78.9361 36.4912 79.0403 36.3374C79.1468 36.1811 79.2001 35.9964 79.2001 35.7834C79.2001 35.5017 79.1007 35.2696 78.9018 35.0874C78.7053 34.9051 78.4129 34.8139 78.0247 34.8139H76.693V36.8203ZM83.0153 33.7273V41H81.6978V33.7273H83.0153Z" fill="#212121"/>
</svg>
