<svg width="82" height="59" viewBox="0 0 82 59" fill="none" xmlns="http://www.w3.org/2000/svg">
<rect x="10" y="3" width="69" height="33" rx="4" fill="white"/>
<path opacity="0.5" d="M16.0112 21.6138C21.22 25.2748 28.854 20.03 32.3318 16.6553C32.5013 16.4909 32.4638 16.2069 32.2747 16.0655C29.6299 14.0885 22.9331 4.91481 21.484 12.4536C19.9559 20.403 12.7992 18.9249 16.0112 21.6138Z" fill="#EB0343"/>
<path d="M32.3224 16.4517C31.9253 17.1304 30.5637 19.0101 29.7695 19.8455C30.4949 18.1686 31.5853 14.9972 32.4097 14.7317C33.23 14.4676 32.7608 15.7022 32.3224 16.4517Z" fill="#603AB4"/>
<path opacity="0.7" d="M18.1993 26.1522C24.0995 28.3253 29.9152 20.8642 32.2966 16.5029C32.4144 16.2871 32.3017 16.0103 32.0793 15.9284C28.9085 14.7598 18.7049 7.98197 19.3628 15.92C20.0563 24.2876 14.443 24.381 18.1993 26.1522Z" fill="url(#paint0_linear_3757_51246)"/>
<path fill-rule="evenodd" clip-rule="evenodd" d="M34.3906 15.8338C34.4292 15.923 34.3836 16.0248 34.2889 16.0611C31.058 17.3002 30.1575 20.5117 30.8962 22.7082C30.9271 22.8 30.8731 22.898 30.7755 22.9271C30.6779 22.9562 30.5738 22.9053 30.5429 22.8135C29.7563 20.4746 30.709 17.0574 34.149 15.738C34.2438 15.7017 34.3519 15.7445 34.3906 15.8338Z" fill="#603AB4"/>
<path d="M56.9763 20C57.7556 20 58.3869 20.2237 58.8702 20.6711C59.3534 21.1112 59.595 21.7494 59.595 22.5856V26.1394H58.5428V22.7286C58.5428 22.1271 58.383 21.6687 58.0635 21.3533C57.744 21.0306 57.3075 20.8692 56.7542 20.8692C56.193 20.8692 55.7449 21.0342 55.4097 21.3643C55.0824 21.6944 54.9187 22.1748 54.9187 22.8056V26.1394H53.8549V20.11H54.9187V20.9682C55.1292 20.6601 55.4136 20.4218 55.7721 20.2531C56.1384 20.0844 56.5398 20 56.9763 20Z" fill="#350793"/>
<path d="M36.6187 26.2384C36.1277 26.2384 35.6873 26.1614 35.2977 26.0073C34.908 25.846 34.6001 25.6259 34.3741 25.3472C34.1481 25.0611 34.0234 24.7347 34 24.368H35.0989C35.1301 24.6687 35.2782 24.9144 35.5432 25.1051C35.8159 25.2958 36.1706 25.3912 36.607 25.3912C37.0123 25.3912 37.3318 25.3068 37.5656 25.1381C37.7995 24.9694 37.9164 24.7567 37.9164 24.5C37.9164 24.2359 37.7917 24.0416 37.5423 23.9169C37.2929 23.7848 36.9071 23.6565 36.3849 23.5318C35.9095 23.4144 35.5198 23.2971 35.2158 23.1797C34.9197 23.055 34.6625 22.8753 34.4442 22.6406C34.2338 22.3985 34.1286 22.0831 34.1286 21.6944C34.1286 21.3863 34.226 21.1039 34.4209 20.8472C34.6157 20.5905 34.8924 20.3888 35.2509 20.2421C35.6094 20.088 36.0186 20.011 36.4784 20.011C37.1876 20.011 37.7605 20.1797 38.1969 20.5171C38.6334 20.8545 38.8672 21.3166 38.8984 21.9034H37.8345C37.8111 21.588 37.6748 21.335 37.4254 21.1443C37.1837 20.9535 36.8564 20.8582 36.4433 20.8582C36.0614 20.8582 35.7575 20.9352 35.5315 21.0892C35.3055 21.2433 35.1924 21.445 35.1924 21.6944C35.1924 21.8924 35.2587 22.0575 35.3912 22.1895C35.5315 22.3142 35.7029 22.4169 35.9056 22.4976C36.116 22.5709 36.4044 22.6553 36.7707 22.7506C37.2305 22.868 37.6046 22.9853 37.893 23.1027C38.1813 23.2127 38.4268 23.3814 38.6295 23.6088C38.8399 23.8362 38.949 24.1333 38.9568 24.5C38.9568 24.8301 38.8594 25.1271 38.6646 25.3912C38.4697 25.6553 38.193 25.8643 37.8345 26.0183C37.4838 26.165 37.0785 26.2384 36.6187 26.2384Z" fill="#350793"/>
<path fill-rule="evenodd" clip-rule="evenodd" d="M40.9379 21.2213C41.1484 20.8765 41.4601 20.5905 41.8732 20.3631C42.294 20.1284 42.7811 20.011 43.3345 20.011C43.9034 20.011 44.4178 20.1394 44.8777 20.3961C45.3453 20.6528 45.7116 21.0159 45.9766 21.4853C46.2416 21.9474 46.3741 22.4866 46.3741 23.1027C46.3741 23.7115 46.2416 24.2543 45.9766 24.7311C45.7116 25.2078 45.3453 25.5782 44.8777 25.8423C44.4178 26.1064 43.9034 26.2384 43.3345 26.2384C42.7889 26.2384 42.3057 26.1247 41.8849 25.8973C41.4718 25.6626 41.1562 25.3729 40.9379 25.0281V29H39.8741V20.11H40.9379V21.2213ZM45.2868 23.1027C45.2868 22.6479 45.1894 22.2518 44.9946 21.9144C44.7997 21.577 44.5347 21.3203 44.1996 21.1443C43.8723 20.9682 43.5099 20.8802 43.1124 20.8802C42.7227 20.8802 42.3603 20.9719 42.0252 21.1553C41.6978 21.3313 41.4328 21.5917 41.2302 21.9364C41.0353 22.2738 40.9379 22.6663 40.9379 23.1137C40.9379 23.5685 41.0353 23.9682 41.2302 24.313C41.4328 24.6504 41.6978 24.9108 42.0252 25.0941C42.3603 25.2702 42.7227 25.3582 43.1124 25.3582C43.5099 25.3582 43.8723 25.2702 44.1996 25.0941C44.5347 24.9108 44.7997 24.6504 44.9946 24.313C45.1894 23.9682 45.2868 23.5648 45.2868 23.1027Z" fill="#350793"/>
<path d="M53.0001 23.4988C53.0235 23.2861 53.0352 23.0844 53.0352 22.8936C53.0352 22.3435 52.9066 21.8521 52.6494 21.4193C52.4 20.9792 52.0415 20.6345 51.5738 20.3851C51.1062 20.1357 50.5684 20.011 49.9605 20.011C49.337 20.011 48.7837 20.1394 48.3005 20.3961C47.825 20.6455 47.4548 21.0049 47.1899 21.4743C46.9249 21.9438 46.7924 22.4902 46.7924 23.1137C46.7924 23.7372 46.9288 24.2873 47.2015 24.7641C47.4743 25.2335 47.8484 25.5966 48.3238 25.8533C48.8071 26.11 49.3526 26.2384 49.9605 26.2384C50.7243 26.2384 51.3634 26.0587 51.8778 25.6993C52.3922 25.3325 52.7351 24.8594 52.9066 24.28H51.7609C51.6362 24.6174 51.418 24.8888 51.1062 25.0941C50.8023 25.2922 50.4204 25.3912 49.9605 25.3912C49.3994 25.3912 48.9201 25.2262 48.5226 24.8961C48.1329 24.5587 47.9186 24.0929 47.8796 23.4988H47.8848C47.848 23.168 47.8666 22.8009 47.9034 22.5789C47.9732 22.0571 48.1835 21.6449 48.5343 21.3423C48.9162 21.0196 49.376 20.8582 49.9138 20.8582C50.2879 20.8582 50.6269 20.9315 50.9309 21.0782C51.2426 21.2176 51.4881 21.4267 51.6674 21.7054C51.8466 21.9768 51.9362 22.3032 51.9362 22.6846H49.7652L48.9 23.4988H53.0001Z" fill="#350793"/>
<path d="M61.5783 26.0073C61.968 26.1614 62.4083 26.2384 62.8993 26.2384C63.3591 26.2384 63.7644 26.165 64.1151 26.0183C64.4736 25.8643 64.7503 25.6553 64.9452 25.3912C65.14 25.1271 65.2374 24.8301 65.2374 24.5C65.2296 24.1333 65.1205 23.8362 64.9101 23.6088C64.7075 23.3814 64.462 23.2127 64.1736 23.1027C63.8852 22.9853 63.5111 22.868 63.0513 22.7506C62.685 22.6553 62.3966 22.5709 62.1862 22.4976C61.9835 22.4169 61.8121 22.3142 61.6718 22.1895C61.5393 22.0575 61.4731 21.8924 61.4731 21.6944C61.4731 21.445 61.5861 21.2433 61.8121 21.0892C62.0381 20.9352 62.3421 20.8582 62.724 20.8582C63.137 20.8582 63.4644 20.9535 63.706 21.1443C63.9554 21.335 64.0917 21.588 64.1151 21.9034H65.179C65.1478 21.3166 64.914 20.8545 64.4775 20.5171C64.0411 20.1797 63.4683 20.011 62.759 20.011C62.2992 20.011 61.89 20.088 61.5315 20.2421C61.173 20.3888 60.8963 20.5905 60.7015 20.8472C60.5066 21.1039 60.4092 21.3863 60.4092 21.6944C60.4092 22.0831 60.5144 22.3985 60.7249 22.6406C60.9431 22.8753 61.2003 23.055 61.4964 23.1797C61.8004 23.2971 62.1901 23.4144 62.6655 23.5318C63.1877 23.6565 63.5735 23.7848 63.8229 23.9169C64.0723 24.0416 64.197 24.2359 64.197 24.5C64.197 24.7567 64.0801 24.9694 63.8462 25.1381C63.6124 25.3068 63.2929 25.3912 62.8876 25.3912C62.4512 25.3912 62.0966 25.2958 61.8238 25.1051C61.5588 24.9144 61.4107 24.6687 61.3795 24.368H60.2806C60.304 24.7347 60.4287 25.0611 60.6547 25.3472C60.8807 25.6259 61.1886 25.846 61.5783 26.0073Z" fill="#350793"/>
<path d="M72 22.8936C72 23.0844 71.9883 23.2861 71.9649 23.4988H67.862L68.7271 22.6846H70.9011C70.9011 22.3032 70.8115 21.9768 70.6322 21.7054C70.4529 21.4267 70.2074 21.2176 69.8957 21.0782C69.5917 20.9315 69.2527 20.8582 68.8786 20.8582C68.3408 20.8582 67.881 21.0196 67.4991 21.3423C67.1642 21.6312 66.9573 22.0201 66.8785 22.509C66.8335 22.7167 66.8058 23.1303 66.8467 23.4988H66.8444C66.8834 24.0929 67.0977 24.5587 67.4874 24.8961C67.8849 25.2262 68.3642 25.3912 68.9254 25.3912C69.3852 25.3912 69.7671 25.2922 70.071 25.0941C70.3828 24.8888 70.601 24.6174 70.7257 24.28H71.8714C71.6999 24.8594 71.357 25.3325 70.8426 25.6993C70.3282 26.0587 69.6892 26.2384 68.9254 26.2384C68.3175 26.2384 67.7719 26.11 67.2887 25.8533C66.8133 25.5966 66.4392 25.2335 66.1664 24.7641C65.8936 24.2873 65.7572 23.7372 65.7572 23.1137C65.7572 22.4902 65.8897 21.9438 66.1547 21.4743C66.4197 21.0049 66.7899 20.6455 67.2653 20.3961C67.7485 20.1394 68.3019 20.011 68.9254 20.011C69.5333 20.011 70.071 20.1357 70.5387 20.3851C71.0063 20.6345 71.3648 20.9792 71.6142 21.4193C71.8714 21.8521 72 22.3435 72 22.8936Z" fill="#350793"/>
<defs>
<linearGradient id="paint0_linear_3757_51246" x1="24.7115" y1="12.1201" x2="24.7115" y2="26.5405" gradientUnits="userSpaceOnUse">
<stop stop-color="#EB0343"/>
<stop offset="1" stop-color="#C60DE9"/>
</linearGradient>
</defs>
</svg>
