<svg width="21" height="25" viewBox="0 0 21 25" fill="none" xmlns="http://www.w3.org/2000/svg">
<path d="M2.33333 24.1304C1.69167 24.1304 1.14217 23.8775 0.684833 23.3718C0.228278 22.8653 0 22.2566 0 21.5459V17.6692H2.33333V21.5459H18.6667V6.03906H2.33333V9.91576H0V3.45459C0 2.74386 0.228278 2.13522 0.684833 1.62866C1.14217 1.12296 1.69167 0.870117 2.33333 0.870117H18.6667C19.3083 0.870117 19.8578 1.12296 20.3152 1.62866C20.7717 2.13522 21 2.74386 21 3.45459V21.5459C21 22.2566 20.7717 22.8653 20.3152 23.3718C19.8578 23.8775 19.3083 24.1304 18.6667 24.1304H2.33333ZM9.91667 19.6075L8.28333 17.7984L10.7042 15.0847H0V12.5002H10.7042L8.28333 9.78654L9.91667 7.97741L15.1667 13.7925L9.91667 19.6075Z" fill="#D8D1E6"/>
</svg>
