<svg width="70" height="44" viewBox="0 0 70 44" fill="none" xmlns="http://www.w3.org/2000/svg">
<path d="M39 17.0001V19.0001H25V17.0001C25 17.0001 25 13.0001 32 13.0001C39 13.0001 39 17.0001 39 17.0001ZM35.5 7.50005C35.5 6.80782 35.2947 6.13113 34.9101 5.55556C34.5256 4.97998 33.9789 4.53138 33.3394 4.26647C32.6999 4.00157 31.9961 3.93226 31.3172 4.0673C30.6382 4.20235 30.0146 4.5357 29.5251 5.02518C29.0356 5.51466 28.7023 6.1383 28.5673 6.81724C28.4322 7.49617 28.5015 8.1999 28.7664 8.83944C29.0313 9.47899 29.4799 10.0256 30.0555 10.4102C30.6311 10.7948 31.3078 11.0001 32 11.0001C32.9283 11.0001 33.8185 10.6313 34.4749 9.97493C35.1313 9.31855 35.5 8.42831 35.5 7.50005ZM38.94 13.0001C39.5547 13.4758 40.0578 14.0805 40.4137 14.7716C40.7696 15.4626 40.9697 16.2233 41 17.0001V19.0001H45V17.0001C45 17.0001 45 13.3701 38.94 13.0001ZM38 4.00005C37.3117 3.99622 36.6385 4.20201 36.07 4.59005C36.6774 5.43879 37.0041 6.45634 37.0041 7.50005C37.0041 8.54377 36.6774 9.56132 36.07 10.4101C36.6385 10.7981 37.3117 11.0039 38 11.0001C38.9283 11.0001 39.8185 10.6313 40.4749 9.97493C41.1313 9.31855 41.5 8.42831 41.5 7.50005C41.5 6.57179 41.1313 5.68156 40.4749 5.02518C39.8185 4.3688 38.9283 4.00005 38 4.00005Z" fill="#350793"/>
<path d="M0.397727 34.8317V33.7273H6.20028V34.8317H3.95241V41H2.6456V34.8317H0.397727ZM6.44567 41V35.5455H7.69212V36.4545H7.74893C7.84837 36.1397 8.01882 35.897 8.2603 35.7266C8.50414 35.5537 8.78232 35.4673 9.09482 35.4673C9.16584 35.4673 9.24515 35.4709 9.33274 35.478C9.4227 35.4827 9.49728 35.491 9.55646 35.5028V36.6854C9.50201 36.6664 9.4156 36.6499 9.29723 36.6357C9.18123 36.6191 9.06877 36.6108 8.95987 36.6108C8.7255 36.6108 8.5148 36.6617 8.32777 36.7635C8.14311 36.8629 7.99751 37.0014 7.89098 37.179C7.78445 37.3565 7.73118 37.5613 7.73118 37.7933V41H6.44567ZM13.6371 38.706V35.5455H14.9226V41H13.6761V40.0305H13.6193C13.4962 40.3359 13.2938 40.5857 13.0121 40.7798C12.7327 40.974 12.3883 41.071 11.9787 41.071C11.6212 41.071 11.3052 40.9917 11.0305 40.8331C10.7583 40.6721 10.5452 40.4389 10.3913 40.1335C10.2375 39.8258 10.1605 39.4541 10.1605 39.0185V35.5455H11.446V38.8196C11.446 39.1652 11.5407 39.4399 11.7301 39.6435C11.9195 39.8471 12.1681 39.9489 12.4759 39.9489C12.6652 39.9489 12.8487 39.9027 13.0263 39.8104C13.2038 39.718 13.3494 39.5807 13.4631 39.3984C13.5791 39.2138 13.6371 38.983 13.6371 38.706ZM20.3056 36.9872L19.1337 37.1151C19.1006 36.9967 19.0426 36.8854 18.9597 36.7812C18.8792 36.6771 18.7703 36.593 18.633 36.5291C18.4957 36.4652 18.3276 36.4332 18.1287 36.4332C17.8612 36.4332 17.6363 36.4912 17.454 36.6072C17.2741 36.7232 17.1853 36.8736 17.1877 37.0582C17.1853 37.2169 17.2433 37.3459 17.3617 37.4453C17.4824 37.5447 17.6813 37.6264 17.9583 37.6903L18.8887 37.8892C19.4048 38.0005 19.7883 38.1768 20.0392 38.4183C20.2926 38.6598 20.4204 38.9759 20.4228 39.3665C20.4204 39.7098 20.3198 40.0128 20.1209 40.2756C19.9244 40.536 19.651 40.7396 19.3006 40.8864C18.9502 41.0331 18.5478 41.1065 18.0932 41.1065C17.4256 41.1065 16.8882 40.9669 16.481 40.6875C16.0738 40.4058 15.8311 40.014 15.753 39.5121L17.0066 39.3913C17.0634 39.6375 17.1841 39.8234 17.3688 39.9489C17.5534 40.0743 17.7937 40.1371 18.0897 40.1371C18.3951 40.1371 18.6401 40.0743 18.8248 39.9489C19.0118 39.8234 19.1053 39.6683 19.1053 39.4837C19.1053 39.3274 19.0449 39.1984 18.9242 39.0966C18.8058 38.9948 18.6212 38.9167 18.3702 38.8622L17.4398 38.6669C16.9166 38.558 16.5295 38.3745 16.2786 38.1165C16.0276 37.8561 15.9033 37.527 15.9057 37.1293C15.9033 36.7931 15.9945 36.5019 16.1792 36.2557C16.3662 36.0071 16.6254 35.8153 16.9569 35.6804C17.2907 35.5431 17.6754 35.4744 18.111 35.4744C18.7502 35.4744 19.2533 35.6106 19.6202 35.8828C19.9895 36.1551 20.218 36.5232 20.3056 36.9872ZM23.9565 35.5455V36.5398H20.8208V35.5455H23.9565ZM21.595 34.2386H22.8805V39.3594C22.8805 39.5322 22.9065 39.6648 22.9586 39.7571C23.0131 39.8471 23.0841 39.9086 23.1717 39.9418C23.2593 39.9749 23.3564 39.9915 23.4629 39.9915C23.5434 39.9915 23.6168 39.9856 23.6831 39.9737C23.7517 39.9619 23.8038 39.9512 23.8393 39.9418L24.0559 40.9467C23.9873 40.9704 23.889 40.9964 23.7612 41.0249C23.6357 41.0533 23.4818 41.0698 23.2995 41.0746C22.9776 41.084 22.6876 41.0355 22.4295 40.929C22.1715 40.8201 21.9667 40.652 21.8152 40.4247C21.666 40.1974 21.5926 39.9134 21.595 39.5724V34.2386ZM27.1378 41.1065C26.5909 41.1065 26.1186 40.9929 25.7209 40.7656C25.3255 40.536 25.0213 40.2116 24.8082 39.7926C24.5952 39.3712 24.4886 38.8752 24.4886 38.3047C24.4886 37.7436 24.5952 37.2512 24.8082 36.8274C25.0237 36.4013 25.3243 36.0698 25.7102 35.8331C26.0961 35.594 26.5495 35.4744 27.0703 35.4744C27.4065 35.4744 27.7237 35.5289 28.022 35.6378C28.3227 35.7443 28.5878 35.91 28.8175 36.1349C29.0495 36.3598 29.2318 36.6463 29.3643 36.9943C29.4969 37.34 29.5632 37.7519 29.5632 38.2301V38.6243H25.0923V37.7578H28.331C28.3286 37.5116 28.2753 37.2926 28.1712 37.1009C28.067 36.9067 27.9214 36.754 27.7344 36.6428C27.5497 36.5315 27.3343 36.4759 27.0881 36.4759C26.8253 36.4759 26.5945 36.5398 26.3956 36.6676C26.1967 36.7931 26.0417 36.9588 25.9304 37.1648C25.8215 37.3684 25.7659 37.5921 25.7635 37.8359V38.5923C25.7635 38.9096 25.8215 39.1818 25.9375 39.4091C26.0535 39.634 26.2157 39.8068 26.424 39.9276C26.6323 40.0459 26.8762 40.1051 27.1555 40.1051C27.3426 40.1051 27.5118 40.0791 27.6634 40.027C27.8149 39.9725 27.9463 39.8932 28.0575 39.7891C28.1688 39.6849 28.2528 39.5559 28.3097 39.402L29.5099 39.5369C29.4342 39.8542 29.2898 40.1312 29.0767 40.3679C28.866 40.6023 28.5961 40.7846 28.267 40.9148C27.938 41.0426 27.5616 41.1065 27.1378 41.1065ZM32.4249 41.0959C31.9964 41.0959 31.6129 40.9858 31.2743 40.7656C30.9358 40.5455 30.6683 40.2259 30.4718 39.8068C30.2753 39.3878 30.177 38.8788 30.177 38.2798C30.177 37.6738 30.2765 37.1624 30.4753 36.7457C30.6766 36.3267 30.9476 36.0107 31.2885 35.7976C31.6294 35.5821 32.0094 35.4744 32.4284 35.4744C32.748 35.4744 33.0108 35.5289 33.2168 35.6378C33.4228 35.7443 33.5861 35.8733 33.7069 36.0249C33.8276 36.174 33.9211 36.3149 33.9874 36.4474H34.0407V33.7273H35.3297V41H34.0655V40.1406H33.9874C33.9211 40.2732 33.8252 40.4141 33.6998 40.5632C33.5743 40.71 33.4086 40.8355 33.2026 40.9396C32.9966 41.0438 32.7374 41.0959 32.4249 41.0959ZM32.7836 40.0412C33.0558 40.0412 33.2878 39.9678 33.4796 39.821C33.6713 39.6719 33.8169 39.4647 33.9164 39.1996C34.0158 38.9344 34.0655 38.6255 34.0655 38.2727C34.0655 37.92 34.0158 37.6134 33.9164 37.353C33.8193 37.0926 33.6749 36.8902 33.4831 36.7457C33.2937 36.6013 33.0605 36.5291 32.7836 36.5291C32.4971 36.5291 32.258 36.6037 32.0662 36.7528C31.8745 36.902 31.7301 37.108 31.633 37.3707C31.5359 37.6335 31.4874 37.9342 31.4874 38.2727C31.4874 38.6136 31.5359 38.9179 31.633 39.1854C31.7324 39.4505 31.878 39.66 32.0698 39.8139C32.2639 39.9654 32.5018 40.0412 32.7836 40.0412ZM38.7369 41V33.7273H40.0224V36.4474H40.0756C40.1419 36.3149 40.2354 36.174 40.3562 36.0249C40.4769 35.8733 40.6403 35.7443 40.8462 35.6378C41.0522 35.5289 41.315 35.4744 41.6346 35.4744C42.056 35.4744 42.436 35.5821 42.7745 35.7976C43.1154 36.0107 43.3853 36.3267 43.5842 36.7457C43.7854 37.1624 43.886 37.6738 43.886 38.2798C43.886 38.8788 43.7878 39.3878 43.5913 39.8068C43.3948 40.2259 43.1272 40.5455 42.7887 40.7656C42.4502 40.9858 42.0666 41.0959 41.6381 41.0959C41.3256 41.0959 41.0664 41.0438 40.8604 40.9396C40.6545 40.8355 40.4888 40.71 40.3633 40.5632C40.2402 40.4141 40.1443 40.2732 40.0756 40.1406H40.0011V41H38.7369ZM39.9975 38.2727C39.9975 38.6255 40.0472 38.9344 40.1467 39.1996C40.2485 39.4647 40.3941 39.6719 40.5835 39.821C40.7752 39.9678 41.0072 40.0412 41.2795 40.0412C41.5636 40.0412 41.8015 39.9654 41.9933 39.8139C42.185 39.66 42.3294 39.4505 42.4265 39.1854C42.5259 38.9179 42.5756 38.6136 42.5756 38.2727C42.5756 37.9342 42.5271 37.6335 42.43 37.3707C42.333 37.108 42.1886 36.902 41.9968 36.7528C41.805 36.6037 41.5659 36.5291 41.2795 36.5291C41.0049 36.5291 40.7717 36.6013 40.5799 36.7457C40.3881 36.8902 40.2425 37.0926 40.1431 37.353C40.046 37.6134 39.9975 37.92 39.9975 38.2727ZM45.3423 43.0455C45.1671 43.0455 45.005 43.0313 44.8558 43.0028C44.709 42.9768 44.5919 42.946 44.5043 42.9105L44.8026 41.9091C44.9896 41.9635 45.1565 41.9896 45.3033 41.9872C45.45 41.9848 45.5791 41.9387 45.6903 41.8487C45.804 41.7611 45.8999 41.6143 45.978 41.4084L46.0881 41.1136L44.1101 35.5455H45.4737L46.7308 39.6648H46.7876L48.0483 35.5455H49.4155L47.2315 41.6605C47.1297 41.9493 46.9948 42.1967 46.8267 42.4027C46.6586 42.611 46.4527 42.7696 46.2088 42.8786C45.9673 42.9898 45.6785 43.0455 45.3423 43.0455ZM54.8565 41.0994C54.3286 41.0994 53.8598 41.0107 53.4503 40.8331C53.0431 40.6555 52.7235 40.4129 52.4915 40.1051C52.2618 39.795 52.1482 39.4434 52.1506 39.0504C52.1482 38.745 52.2145 38.4645 52.3494 38.2088C52.4844 37.9531 52.6667 37.7401 52.8963 37.5696C53.1283 37.3968 53.3864 37.2867 53.6705 37.2393V37.1896C53.2964 37.1068 52.9934 36.9162 52.7614 36.6179C52.5317 36.3172 52.4181 35.9704 52.4205 35.5774C52.4181 35.2034 52.5223 34.8696 52.733 34.576C52.9437 34.2824 53.2325 34.0516 53.5994 33.8835C53.9664 33.7131 54.3854 33.6278 54.8565 33.6278C55.3229 33.6278 55.7384 33.7131 56.103 33.8835C56.4699 34.0516 56.7588 34.2824 56.9695 34.576C57.1825 34.8696 57.2891 35.2034 57.2891 35.5774C57.2891 35.9704 57.1719 36.3172 56.9375 36.6179C56.7055 36.9162 56.406 37.1068 56.0391 37.1896V37.2393C56.3232 37.2867 56.5788 37.3968 56.8061 37.5696C57.0357 37.7401 57.218 37.9531 57.353 38.2088C57.4903 38.4645 57.5589 38.745 57.5589 39.0504C57.5589 39.4434 57.4429 39.795 57.2109 40.1051C56.9789 40.4129 56.6593 40.6555 56.2521 40.8331C55.8473 41.0107 55.3821 41.0994 54.8565 41.0994ZM54.8565 40.0838C55.1288 40.0838 55.3655 40.0376 55.5668 39.9453C55.768 39.8506 55.9242 39.718 56.0355 39.5476C56.1468 39.3771 56.2036 39.1806 56.206 38.9581C56.2036 38.7261 56.1432 38.5213 56.0249 38.3438C55.9089 38.1638 55.7491 38.023 55.5455 37.9212C55.3442 37.8194 55.1146 37.7685 54.8565 37.7685C54.5961 37.7685 54.3641 37.8194 54.1605 37.9212C53.9569 38.023 53.7959 38.1638 53.6776 38.3438C53.5616 38.5213 53.5047 38.7261 53.5071 38.9581C53.5047 39.1806 53.5592 39.3771 53.6705 39.5476C53.7817 39.7157 53.938 39.8471 54.1392 39.9418C54.3428 40.0365 54.5819 40.0838 54.8565 40.0838ZM54.8565 36.7706C55.0791 36.7706 55.2756 36.7256 55.446 36.6357C55.6188 36.5457 55.755 36.4202 55.8544 36.2592C55.9538 36.0982 56.0047 35.9124 56.0071 35.7017C56.0047 35.4934 55.955 35.3111 55.858 35.1548C55.7609 34.9962 55.6259 34.8743 55.4531 34.7891C55.2803 34.7015 55.0814 34.6577 54.8565 34.6577C54.6269 34.6577 54.4245 34.7015 54.2493 34.7891C54.0765 34.8743 53.9415 34.9962 53.8445 35.1548C53.7498 35.3111 53.7036 35.4934 53.706 35.7017C53.7036 35.9124 53.7509 36.0982 53.848 36.2592C53.9474 36.4179 54.0836 36.5433 54.2564 36.6357C54.4316 36.7256 54.6316 36.7706 54.8565 36.7706ZM61.1646 41.1385C60.5798 41.1385 60.0779 40.9905 59.6589 40.6946C59.2422 40.3963 58.9215 39.9666 58.6966 39.4055C58.474 38.8421 58.3627 38.1638 58.3627 37.3707C58.3651 36.5777 58.4776 35.9029 58.7001 35.3466C58.925 34.7879 59.2458 34.3617 59.6625 34.0682C60.0815 33.7746 60.5822 33.6278 61.1646 33.6278C61.747 33.6278 62.2477 33.7746 62.6667 34.0682C63.0858 34.3617 63.4065 34.7879 63.6291 35.3466C63.854 35.9053 63.9664 36.58 63.9664 37.3707C63.9664 38.1662 63.854 38.8456 63.6291 39.4091C63.4065 39.9702 63.0858 40.3987 62.6667 40.6946C62.2501 40.9905 61.7493 41.1385 61.1646 41.1385ZM61.1646 40.027C61.6191 40.027 61.9778 39.8033 62.2406 39.3558C62.5057 38.906 62.6383 38.2443 62.6383 37.3707C62.6383 36.7931 62.5779 36.3078 62.4572 35.9148C62.3365 35.5218 62.166 35.2259 61.9458 35.027C61.7257 34.8258 61.4653 34.7251 61.1646 34.7251C60.7124 34.7251 60.3549 34.95 60.0922 35.3999C59.8294 35.8473 59.6968 36.5043 59.6944 37.3707C59.6921 37.9508 59.7501 38.4384 59.8684 38.8338C59.9892 39.2292 60.1596 39.5275 60.3798 39.7287C60.6 39.9276 60.8616 40.027 61.1646 40.027ZM64.9673 41V33.7273H66.2848V39.8956H69.4879V41H64.9673Z" fill="#212121"/>
</svg>
